{"glyphs":{"0":{"ha":1278,"x_min":96,"x_max":1182,"o":"m 851 29 q 742 -3 797 7 q 629 -12 688 -12 q 418 31 515 -12 q 249 149 321 75 q 138 323 178 224 q 97 532 97 422 q 107 640 96 588 q 139 743 118 693 q 225 881 172 822 q 344 978 278 939 q 488 1036 411 1017 q 649 1056 565 1056 q 802 1034 728 1056 q 941 972 876 1013 q 1056 874 1006 932 q 1138 743 1107 817 q 1179 532 1182 643 q 1169 424 1181 478 q 1138 318 1158 369 q 1024 145 1097 218 q 851 29 950 72 m 972 383 q 996 524 996 451 q 969 672 996 607 q 893 781 942 736 q 777 849 844 826 q 629 872 710 872 q 485 847 550 872 q 375 775 421 821 q 304 665 329 729 q 279 524 279 601 q 306 374 279 440 q 382 263 333 308 q 498 193 431 217 q 647 169 565 169 q 752 183 701 169 q 845 224 803 197 q 921 292 888 251 q 972 383 954 332 z "},"1":{"ha":611,"x_min":74,"x_max":501,"o":"m 321 0 l 321 701 q 286 819 321 776 q 174 861 251 861 l 74 861 l 74 1043 l 174 1043 q 419 952 338 1043 q 501 701 501 861 l 501 0 l 321 0 z "},"2":{"ha":1172,"x_min":103,"x_max":1072,"o":"m 103 0 l 103 306 q 188 535 103 463 q 424 607 272 607 l 751 607 q 803 614 779 607 q 847 640 826 621 q 876 683 867 658 q 883 733 886 707 q 849 828 888 789 q 803 854 828 847 q 751 861 779 861 l 111 861 l 111 1043 l 751 1043 q 880 1024 821 1043 q 982 967 939 1004 q 1049 875 1025 929 q 1072 750 1072 821 q 1047 624 1072 679 q 978 530 1022 568 q 877 472 935 492 q 753 453 819 453 l 424 453 q 275 318 275 453 l 275 182 l 1054 182 l 1054 0 l 103 0 z "},"3":{"ha":1196,"x_min":92,"x_max":1096,"o":"m 92 0 l 92 182 l 713 182 q 853 217 800 182 q 895 260 881 233 q 907 319 910 288 q 862 423 907 393 q 749 453 817 453 l 339 453 l 339 607 l 736 607 q 847 633 804 607 q 889 733 889 658 q 872 802 889 776 q 829 841 856 828 q 769 858 803 854 q 700 863 735 863 l 96 863 l 96 1043 l 736 1043 q 828 1036 782 1043 q 917 1011 875 1029 q 994 964 960 993 q 1049 890 1028 935 q 1072 774 1075 835 q 1029 622 1072 674 q 929 551 990 571 q 1046 468 1001 528 q 1092 315 1096 399 q 1068 186 1093 250 q 1017 103 1050 139 q 943 45 985 68 q 853 11 901 22 q 757 0 806 0 l 92 0 z "},"4":{"ha":1246,"x_min":99,"x_max":1157,"o":"m 281 1043 l 281 614 q 319 491 281 528 q 442 454 357 454 l 824 454 l 824 1043 l 1006 1043 l 1006 454 l 1157 454 l 1157 278 l 1006 278 l 1006 0 l 824 0 l 824 278 l 442 278 q 186 360 274 278 q 99 613 99 442 l 99 1043 l 281 1043 z "},"5":{"ha":1261,"x_min":107,"x_max":1163,"o":"m 107 1043 l 1113 1043 l 1113 861 l 294 861 l 294 607 l 839 607 q 1076 535 990 607 q 1163 306 1163 463 q 1139 174 1163 231 q 1072 78 1115 117 q 969 20 1029 40 q 839 0 910 0 l 107 0 l 107 182 l 839 182 q 951 219 913 182 q 990 318 993 261 q 949 422 990 392 q 839 453 907 453 l 107 453 l 107 1043 z "},"6":{"ha":1265,"x_min":99,"x_max":1165,"o":"m 574 0 q 425 18 494 0 q 298 73 356 36 q 198 166 240 110 q 132 299 156 222 q 100 532 99 415 q 132 763 99 647 q 201 892 157 839 q 302 979 244 946 q 428 1028 360 1013 q 574 1043 497 1043 l 1122 1043 l 1122 861 l 574 861 q 373 800 442 861 q 286 608 304 739 l 849 608 q 1081 540 996 608 q 1165 317 1165 471 q 1083 83 1165 165 q 849 0 1000 0 l 574 0 m 285 454 q 367 251 299 321 q 574 182 436 182 l 831 182 q 946 216 901 182 q 990 325 990 250 q 831 454 990 454 l 285 454 z "},"7":{"ha":1099,"x_min":83,"x_max":1025,"o":"m 92 0 l 756 861 l 83 861 l 83 1043 l 910 1043 q 951 1039 931 1043 q 989 1025 972 1035 q 1015 999 1006 1015 q 1025 957 1025 982 q 1015 911 1025 933 q 990 871 1006 889 l 329 0 l 92 0 z "},"8":{"ha":1299,"x_min":103,"x_max":1199,"o":"m 439 0 q 303 22 365 0 q 197 84 242 43 q 128 183 153 125 q 103 315 103 242 q 144 462 103 399 q 267 551 185 525 q 156 636 190 575 q 122 774 122 697 q 151 899 122 847 q 226 982 179 950 q 333 1028 272 1014 q 458 1043 394 1043 l 839 1043 q 933 1036 886 1043 q 1021 1012 979 1029 q 1097 965 1063 994 q 1153 890 1131 936 q 1176 774 1179 835 q 1165 686 1178 731 q 1088 578 1146 618 q 1060 563 1074 569 q 1032 551 1047 556 q 1150 468 1103 529 q 1196 315 1199 401 q 1170 180 1196 239 q 1099 81 1144 121 q 992 21 1054 42 q 860 0 931 0 l 439 0 m 446 454 q 383 447 413 454 q 333 422 354 439 q 299 380 311 406 q 286 318 286 354 q 299 259 285 286 q 342 217 314 232 q 483 182 397 182 l 815 182 q 957 217 901 182 q 999 259 985 232 q 1011 318 1014 286 q 966 423 1011 392 q 853 454 921 454 l 446 454 m 493 863 q 424 858 458 863 q 365 841 390 854 q 323 802 339 828 q 307 733 307 776 q 349 633 307 658 q 458 607 390 607 l 839 607 q 949 633 907 607 q 992 733 992 658 q 976 801 992 775 q 933 840 960 826 q 873 858 907 854 q 804 863 839 863 l 493 863 z "},"9":{"ha":1263,"x_min":96,"x_max":1164,"o":"m 214 0 l 214 182 l 688 182 q 878 235 808 182 q 971 410 947 289 l 397 410 q 169 488 243 410 q 96 718 96 567 q 117 845 96 786 q 176 948 138 904 q 271 1017 215 992 q 397 1043 326 1043 l 688 1043 q 834 1025 764 1043 q 963 970 904 1007 q 1063 877 1021 933 q 1128 744 1106 821 q 1161 511 1164 632 q 1128 281 1164 393 q 1061 151 1106 204 q 958 64 1017 97 q 831 15 900 31 q 688 0 761 0 l 214 0 m 319 821 q 281 707 281 779 q 428 563 281 563 l 978 563 q 955 688 974 633 q 901 781 936 743 q 814 840 867 819 q 688 860 761 860 l 428 860 q 319 821 361 860 z "},"\u0000":{"ha":0,"x_min":0,"x_max":0,"o":""},"\r":{"ha":0,"x_min":0,"x_max":0,"o":""}," ":{"ha":563,"x_min":0,"x_max":0,"o":""},"\n":{"ha":0,"x_min":0,"x_max":0,"o":""},"!":{"ha":403,"x_min":104,"x_max":300,"o":"m 113 336 l 113 1044 l 285 1044 l 285 336 l 113 336 m 272 156 q 300 86 300 125 q 272 14 300 44 q 240 -6 257 0 q 203 -12 222 -12 q 133 16 163 -12 q 104 86 104 44 q 132 156 104 128 q 203 183 164 183 q 272 156 242 183 z "},"#":{"ha":1063,"x_min":92,"x_max":972,"o":"m 258 404 l 333 656 l 203 656 l 203 776 l 369 776 l 450 1043 l 581 1043 l 501 776 l 713 776 l 793 1043 l 922 1043 l 842 776 l 972 776 l 972 656 l 806 656 l 731 404 l 861 404 l 861 283 l 693 283 l 608 0 l 479 0 l 564 283 l 350 283 l 265 0 l 138 0 l 221 283 l 92 283 l 92 404 l 258 404 m 601 404 l 676 656 l 463 656 l 388 404 l 601 404 z "},"$":{"ha":1101,"x_min":101,"x_max":1003,"o":"m 101 707 q 122 809 101 765 q 176 883 142 853 q 258 927 211 913 q 358 942 304 942 l 521 942 l 521 1043 l 601 1043 l 601 942 l 963 942 l 963 794 l 601 794 l 601 590 l 743 590 q 935 533 867 590 q 1003 347 1003 475 q 988 250 1003 299 q 939 172 971 207 q 849 117 897 132 q 743 101 800 101 l 601 101 l 601 0 l 521 0 l 521 101 l 113 101 l 113 251 l 521 251 l 521 469 l 357 469 q 256 486 303 469 q 174 533 208 503 q 121 608 140 564 q 101 707 101 653 m 743 251 q 833 279 803 251 q 864 358 867 314 q 832 443 864 417 q 743 469 800 469 l 601 469 l 601 251 l 743 251 m 282 617 q 358 590 313 590 l 521 590 l 521 794 l 358 794 q 316 789 335 794 q 281 767 297 783 q 254 693 251 736 q 259 652 251 672 q 282 617 267 632 z "},"%":{"ha":1089,"x_min":76,"x_max":1000,"o":"m 857 1043 l 372 0 l 229 0 l 714 1043 l 857 1043 m 543 810 q 525 721 543 763 q 476 648 507 679 q 403 599 444 617 q 315 581 363 581 q 188 619 244 581 q 104 722 131 657 q 90 854 76 786 q 153 971 104 922 q 228 1021 186 1004 q 315 1038 271 1038 q 403 1020 363 1038 q 476 972 444 1003 q 525 899 507 940 q 543 810 543 858 m 208 810 q 240 735 208 765 q 315 704 271 704 q 374 722 347 704 q 413 769 400 739 q 419 830 425 799 q 389 885 413 861 q 314 915 358 915 q 240 884 271 915 q 208 810 208 853 m 772 463 q 861 444 819 463 q 933 395 903 426 q 982 322 964 364 q 1000 233 1000 281 q 982 145 1000 186 q 933 73 964 104 q 861 24 903 42 q 772 6 819 6 q 683 24 725 6 q 610 73 642 42 q 561 145 579 104 q 543 233 543 186 q 561 322 543 281 q 610 395 579 364 q 683 444 642 426 q 772 463 725 463 m 772 128 q 847 158 817 128 q 878 233 878 189 q 847 309 878 278 q 772 340 817 340 q 697 309 728 340 q 667 233 667 278 q 697 158 667 189 q 772 128 728 128 z "},"&":{"ha":1172,"x_min":101,"x_max":1081,"o":"m 267 551 q 156 636 189 575 q 124 774 124 697 q 147 890 121 835 q 202 965 168 935 q 278 1012 236 994 q 368 1036 321 1029 q 460 1043 415 1043 l 658 1043 l 658 863 l 454 863 q 307 733 307 863 q 344 640 303 678 q 458 607 382 607 l 1015 607 l 1015 456 l 893 456 l 893 182 l 1081 182 l 1081 0 l 439 0 q 302 22 364 0 q 196 84 240 43 q 127 183 151 125 q 103 317 103 242 q 113 394 101 357 q 145 462 124 431 q 198 516 167 493 q 267 551 229 539 m 335 218 q 469 182 382 182 l 710 182 l 710 456 l 472 456 q 402 451 436 456 q 342 431 368 446 q 301 390 317 417 q 286 321 286 364 q 298 265 285 292 q 335 218 311 238 z "},"(":{"ha":636,"x_min":108,"x_max":565,"o":"m 565 1192 l 565 1010 q 458 988 508 1010 q 371 929 408 967 q 312 842 333 892 q 290 735 290 792 l 290 308 q 312 201 290 251 q 371 114 333 151 q 458 55 408 76 q 565 33 508 33 l 565 -149 q 388 -112 471 -149 q 242 -15 304 -76 q 144 131 181 47 q 108 308 108 214 l 108 735 q 144 913 108 829 q 242 1058 181 996 q 388 1156 304 1119 q 565 1192 471 1192 z "},")":{"ha":636,"x_min":71,"x_max":528,"o":"m 71 33 q 178 55 128 33 q 265 114 228 76 q 324 201 303 151 q 346 308 346 251 l 346 735 q 324 842 346 792 q 265 929 303 892 q 178 988 228 967 q 71 1010 128 1010 l 71 1192 q 249 1156 165 1192 q 394 1058 332 1119 q 492 913 456 996 q 528 735 528 829 l 528 308 q 492 131 528 214 q 394 -15 456 47 q 249 -112 332 -76 q 71 -149 165 -149 l 71 33 z "},"*":{"ha":425,"x_min":72,"x_max":351,"o":"m 72 871 l 72 936 l 132 936 l 90 979 l 136 1026 l 179 983 l 179 1043 l 244 1043 l 244 983 l 288 1026 l 333 979 l 292 936 l 351 936 l 351 871 l 292 871 l 333 828 l 288 782 l 244 824 l 244 764 l 179 764 l 179 824 l 136 782 l 90 828 l 132 871 l 72 871 z "},"+":{"ha":575,"x_min":81,"x_max":493,"o":"m 226 592 l 226 736 l 347 736 l 347 592 l 493 592 l 493 469 l 347 469 l 347 324 l 226 324 l 226 469 l 81 469 l 81 592 l 226 592 z "},",":{"ha":331,"x_min":75,"x_max":258,"o":"m 258 204 l 188 -169 l 75 -169 l 75 204 l 258 204 z "},"-":{"ha":475,"x_min":65,"x_max":410,"o":"m 65 469 l 65 592 l 410 592 l 410 469 l 65 469 z "},".":{"ha":338,"x_min":71,"x_max":267,"o":"m 238 156 q 267 86 267 129 q 237 15 267 42 q 163 -11 207 -11 q 97 18 122 -11 q 71 86 71 47 q 99 157 71 131 q 171 183 128 183 q 207 176 190 183 q 238 156 224 168 z "},"/":{"ha":738,"x_min":71,"x_max":699,"o":"m 699 1043 l 214 0 l 71 0 l 556 1043 l 699 1043 z "},":":{"ha":368,"x_min":85,"x_max":282,"o":"m 182 461 q 114 488 140 461 q 92 519 100 501 q 86 557 85 538 q 114 628 86 601 q 186 656 142 656 q 254 626 226 656 q 282 557 282 597 q 253 488 282 514 q 182 461 224 461 m 182 183 q 253 156 224 183 q 282 86 282 129 q 252 15 282 42 q 178 -11 222 -11 q 112 18 138 -11 q 86 86 86 47 q 114 155 86 126 q 182 183 142 183 z "},";":{"ha":368,"x_min":85,"x_max":282,"o":"m 183 461 q 115 489 142 461 q 88 558 88 517 q 115 629 85 599 q 149 650 131 644 q 189 656 167 656 q 254 629 225 656 q 282 558 282 599 q 254 488 282 514 q 183 461 226 461 m 93 204 l 276 204 l 206 -169 l 93 -169 l 93 204 z "},"=":{"ha":500,"x_min":78,"x_max":422,"o":"m 78 597 l 78 719 l 422 719 l 422 597 l 78 597 m 422 464 l 422 342 l 78 342 l 78 464 l 422 464 z "},"?":{"ha":1133,"x_min":86,"x_max":1044,"o":"m 272 183 q 343 158 315 183 q 371 88 371 132 q 343 15 371 46 q 310 -5 328 1 q 274 -11 293 -11 q 204 17 233 -11 q 175 88 175 46 q 203 157 175 131 q 272 183 231 183 m 1022 868 q 1044 749 1044 810 q 1022 632 1043 689 q 974 552 1004 586 q 904 497 943 518 q 820 465 865 475 q 728 454 775 454 l 424 454 q 356 393 356 454 l 356 336 l 183 336 l 183 397 q 201 492 183 453 q 252 558 219 532 q 328 595 285 583 q 424 607 372 607 l 725 607 q 821 640 785 607 q 857 733 857 672 q 850 784 860 760 q 822 828 840 808 q 777 854 801 847 q 725 861 753 861 l 86 861 l 86 1043 l 725 1043 q 819 1033 774 1043 q 904 1002 865 1024 q 974 947 943 981 q 1024 868 1006 914 l 1022 868 z "},"@":{"ha":1253,"x_min":96,"x_max":1142,"o":"m 97 510 q 137 719 97 622 q 247 888 176 817 q 413 1001 317 960 q 622 1042 510 1042 l 1142 1042 l 1142 279 l 600 279 q 517 297 558 279 q 451 350 476 315 q 427 385 438 367 q 410 425 417 404 q 408 611 378 518 q 481 716 432 676 q 600 756 529 756 l 881 756 l 881 394 l 1006 394 l 1006 908 l 622 908 q 506 894 563 908 q 402 851 450 879 q 317 779 354 822 q 260 678 281 736 q 233 521 233 601 q 260 364 233 440 q 317 262 281 306 q 402 190 354 218 q 506 147 450 161 q 622 132 563 132 l 1142 132 l 1142 0 l 622 0 q 469 19 543 0 q 331 76 394 38 q 217 170 267 114 q 136 301 167 226 q 97 510 96 403 m 517 522 q 549 432 514 471 q 585 403 564 413 q 632 394 607 394 l 761 394 l 761 651 l 632 651 q 585 644 607 651 q 547 617 564 636 q 517 522 513 575 z "},"A":{"ha":1210,"x_min":21,"x_max":1189,"o":"m 21 0 l 467 910 q 523 971 486 949 q 603 993 560 993 q 685 970 647 993 q 743 907 724 947 l 1189 0 l 975 0 l 879 196 l 329 196 l 235 0 l 21 0 m 422 386 l 786 386 l 604 758 l 422 386 z "},"B":{"ha":1156,"x_min":110,"x_max":1079,"o":"m 994 494 q 1057 402 1035 454 q 1078 292 1079 350 q 1051 177 1078 231 q 979 85 1025 124 q 871 24 933 46 q 736 1 808 1 l 110 0 l 110 972 l 721 972 q 856 950 793 972 q 964 888 918 928 q 1036 795 1010 849 q 1063 681 1063 742 q 1046 581 1064 629 q 994 494 1028 533 m 736 192 q 843 220 800 192 q 886 292 886 249 q 736 390 886 390 l 386 390 l 386 582 l 721 582 q 871 681 871 582 q 828 752 871 724 q 721 781 785 781 l 300 781 l 300 192 l 736 192 z "},"C":{"ha":1086,"x_min":72,"x_max":1025,"o":"m 72 542 q 106 709 72 631 q 199 846 140 788 q 335 938 257 904 q 501 972 413 972 l 1025 972 l 1025 781 l 501 781 q 408 762 451 781 q 333 710 365 743 q 281 635 300 678 q 263 542 263 592 l 263 429 q 281 336 263 379 q 333 260 300 293 q 408 209 365 228 q 501 190 451 190 l 1025 190 l 1025 0 l 501 0 q 335 34 413 0 q 199 126 257 68 q 106 263 140 185 q 72 429 72 340 l 72 542 z "},"D":{"ha":1156,"x_min":110,"x_max":1083,"o":"m 654 972 q 821 938 743 972 q 957 846 899 904 q 1049 709 1015 788 q 1083 542 1083 631 l 1083 429 q 1049 263 1083 340 q 957 126 1015 185 q 821 34 899 68 q 654 0 743 0 l 110 0 l 110 972 l 654 972 m 892 542 q 873 635 892 592 q 822 710 854 678 q 747 762 790 743 q 654 781 703 781 l 300 781 l 300 190 l 654 190 q 747 209 703 190 q 822 260 790 228 q 873 336 854 293 q 892 429 892 379 l 892 542 z "},"E":{"ha":996,"x_min":110,"x_max":911,"o":"m 110 0 l 110 972 l 911 972 l 911 782 l 300 782 l 300 190 l 911 190 l 911 0 l 110 0 m 865 581 l 865 390 l 386 390 l 386 581 l 865 581 z "},"F":{"ha":968,"x_min":110,"x_max":911,"o":"m 911 972 l 911 782 l 300 782 l 300 0 l 110 0 l 110 972 l 911 972 m 386 390 l 386 581 l 865 581 l 865 390 l 386 390 z "},"G":{"ha":1151,"x_min":72,"x_max":1050,"o":"m 72 542 q 106 709 72 631 q 199 846 140 788 q 335 938 257 904 q 501 972 413 972 l 1050 972 l 1050 781 l 501 781 q 408 762 451 781 q 333 710 365 743 q 281 635 300 678 q 263 542 263 592 l 263 429 q 281 336 263 379 q 333 260 300 293 q 408 209 365 228 q 501 190 451 190 l 860 190 l 860 390 l 507 390 l 507 581 l 1050 581 l 1050 0 l 501 0 q 335 34 413 0 q 199 126 257 68 q 106 263 140 185 q 72 429 72 340 l 72 542 z "},"H":{"ha":1165,"x_min":110,"x_max":1056,"o":"m 300 972 l 300 581 l 864 581 l 864 972 l 1056 972 l 1056 0 l 864 0 l 864 390 l 300 390 l 300 0 l 110 0 l 110 972 l 300 972 z "},"I":{"ha":411,"x_min":110,"x_max":300,"o":"m 110 0 l 110 972 l 300 972 l 300 0 l 110 0 z "},"J":{"ha":1072,"x_min":29,"x_max":982,"o":"m 982 972 l 982 429 q 948 263 982 340 q 856 126 914 185 q 719 34 797 68 q 553 0 642 0 l 29 0 l 29 190 l 553 190 q 646 209 603 190 q 722 260 689 228 q 773 336 754 293 q 792 429 792 379 l 792 972 l 982 972 z "},"K":{"ha":1079,"x_min":110,"x_max":1057,"o":"m 432 599 l 817 972 l 1057 972 l 560 486 l 1057 0 l 817 0 l 432 374 q 397 426 408 397 q 385 486 385 456 q 397 546 385 517 q 432 599 408 575 m 110 972 l 300 972 l 300 0 l 110 0 l 110 972 z "},"L":{"ha":942,"x_min":110,"x_max":911,"o":"m 911 190 l 911 0 l 110 0 l 110 972 l 300 972 l 300 190 l 911 190 z "},"M":{"ha":1468,"x_min":49,"x_max":1419,"o":"m 214 853 q 269 951 225 911 q 374 993 314 990 q 485 960 436 993 q 554 867 535 928 l 733 296 l 913 867 q 982 960 933 926 q 1093 993 1031 993 q 1199 951 1154 990 q 1254 853 1243 911 l 1419 0 l 1226 0 l 1072 739 l 869 97 q 817 26 854 53 q 735 0 781 0 l 732 0 q 649 26 686 0 q 599 97 613 53 l 396 739 l 242 0 l 49 0 l 214 853 z "},"N":{"ha":1165,"x_min":110,"x_max":1056,"o":"m 110 0 l 110 972 l 332 972 l 864 288 l 864 972 l 1056 972 l 1056 0 l 843 0 l 300 678 l 300 0 l 110 0 z "},"O":{"ha":1203,"x_min":72,"x_max":1129,"o":"m 700 972 q 867 938 789 972 q 1004 846 946 904 q 1096 709 1063 788 q 1129 542 1129 631 l 1129 429 q 1096 263 1129 340 q 1004 126 1063 185 q 867 34 946 68 q 700 0 789 0 l 501 0 q 335 34 413 0 q 199 126 257 68 q 106 263 140 185 q 72 429 72 340 l 72 542 q 106 709 72 631 q 199 846 140 788 q 335 938 257 904 q 501 972 413 972 l 700 972 m 939 542 q 920 635 939 592 q 869 710 901 678 q 793 762 836 743 q 700 781 750 781 l 501 781 q 408 762 451 781 q 333 710 365 743 q 281 635 300 678 q 263 542 263 592 l 263 429 q 281 336 263 379 q 333 260 300 293 q 408 209 365 228 q 501 190 451 190 l 700 190 q 793 209 750 190 q 869 260 836 228 q 920 336 901 293 q 939 429 939 379 l 939 542 z "},"P":{"ha":1140,"x_min":110,"x_max":1083,"o":"m 742 972 q 875 945 813 972 q 983 872 938 918 q 1056 763 1029 825 q 1083 631 1083 701 l 1083 593 q 1056 460 1083 522 q 983 351 1029 397 q 874 277 936 304 q 742 250 813 250 l 386 250 l 386 442 l 742 442 q 801 453 774 442 q 848 485 828 465 q 880 533 868 506 q 892 593 892 561 l 892 631 q 880 690 892 663 q 848 737 868 717 q 801 769 828 757 q 742 781 774 781 l 300 781 l 300 0 l 110 0 l 110 972 l 742 972 z "},"Q":{"ha":1210,"x_min":72,"x_max":1131,"o":"m 72 542 q 106 709 72 631 q 199 846 140 788 q 335 938 257 904 q 501 972 413 972 l 700 972 q 867 938 789 972 q 1004 846 946 904 q 1096 709 1063 788 q 1129 542 1129 631 l 1129 429 q 1102 276 1131 350 q 1021 144 1074 203 l 1129 0 l 914 0 l 883 42 q 700 0 799 0 l 501 0 q 335 34 413 0 q 199 126 257 68 q 106 263 140 185 q 72 429 72 340 l 72 542 m 501 190 l 700 190 q 764 200 735 190 l 607 408 l 824 408 l 903 303 q 939 429 939 360 l 939 542 q 920 635 939 592 q 869 710 901 678 q 793 762 836 743 q 700 781 750 781 l 501 781 q 408 762 451 781 q 333 710 365 743 q 281 635 300 678 q 263 542 263 592 l 263 429 q 281 336 263 379 q 333 260 300 293 q 408 209 365 228 q 501 190 451 190 z "},"R":{"ha":1192,"x_min":110,"x_max":1156,"o":"m 742 972 q 875 945 813 972 q 983 872 938 918 q 1056 763 1029 825 q 1083 631 1083 701 l 1083 593 q 1033 414 1083 496 q 896 288 983 332 l 1156 0 l 899 0 l 674 250 l 386 250 l 386 442 l 742 442 q 801 453 774 442 q 848 485 828 465 q 880 533 868 506 q 892 593 892 561 l 892 631 q 880 690 892 663 q 848 737 868 717 q 801 769 828 757 q 742 781 774 781 l 300 781 l 300 0 l 110 0 l 110 972 l 742 972 z "},"S":{"ha":1108,"x_min":67,"x_max":1035,"o":"m 693 582 q 834 561 771 582 q 942 503 897 540 q 1010 412 986 465 q 1035 292 1035 358 q 1008 177 1035 231 q 936 85 982 124 q 828 24 890 46 q 693 1 765 1 l 67 1 l 67 192 l 693 192 q 800 220 757 192 q 843 292 843 249 q 693 390 843 390 l 436 390 q 295 411 358 390 q 188 469 232 432 q 119 560 143 507 q 94 681 94 614 q 121 795 94 742 q 193 888 147 849 q 301 950 239 928 q 436 972 364 972 l 1019 972 l 1019 781 l 436 781 q 328 752 372 781 q 285 681 285 724 q 436 582 285 582 l 693 582 z "},"T":{"ha":953,"x_min":29,"x_max":922,"o":"m 29 972 l 922 972 l 922 782 l 571 782 l 571 0 l 381 0 l 381 782 l 29 782 l 29 972 z "},"U":{"ha":1214,"x_min":90,"x_max":1124,"o":"m 90 429 l 90 972 l 281 972 l 281 429 q 299 336 281 379 q 351 260 318 293 q 426 209 383 228 q 519 190 469 190 l 693 190 q 786 209 743 190 q 862 260 829 228 q 913 336 894 293 q 932 429 932 379 l 932 972 l 1124 972 l 1124 429 q 1090 263 1124 340 q 997 126 1056 185 q 860 34 939 68 q 693 0 782 0 l 519 0 q 353 34 431 0 q 217 126 275 68 q 124 263 158 185 q 90 429 90 340 z "},"V":{"ha":1204,"x_min":18,"x_max":1186,"o":"m 232 972 l 601 214 l 972 972 l 1186 972 l 739 63 q 683 1 719 24 q 604 -21 647 -21 q 521 2 560 -21 q 463 65 482 25 l 18 972 l 232 972 z "},"W":{"ha":1721,"x_min":18,"x_max":1701,"o":"m 18 972 l 232 972 l 601 214 l 754 525 l 535 972 l 747 972 l 1118 214 l 1489 972 l 1701 972 l 1256 63 q 1199 1 1236 24 q 1119 -21 1163 -21 q 1037 2 1075 -21 q 979 65 999 25 l 860 308 l 739 63 q 683 1 719 24 q 604 -21 647 -21 q 521 2 560 -21 q 463 65 482 25 l 18 972 z "},"X":{"ha":1118,"x_min":24,"x_max":1093,"o":"m 24 0 l 451 486 l 24 972 l 239 972 l 558 608 l 878 972 l 1093 972 l 667 486 l 1093 0 l 878 0 l 558 364 l 239 0 l 24 0 z "},"Y":{"ha":1090,"x_min":10,"x_max":1079,"o":"m 225 972 l 544 571 l 864 972 l 1079 972 l 640 442 l 640 0 l 450 0 l 450 442 l 10 972 l 225 972 z "},"Z":{"ha":946,"x_min":56,"x_max":889,"o":"m 888 190 l 888 0 l 147 0 q 101 13 122 0 q 68 49 79 25 q 57 96 56 71 q 74 142 58 121 l 610 782 l 57 782 l 57 972 l 797 972 q 844 960 822 972 q 876 924 865 947 q 888 876 889 901 q 871 831 886 851 l 335 190 l 888 190 z "},"[":{"ha":639,"x_min":111,"x_max":568,"o":"m 568 1192 l 568 1010 l 293 1010 l 293 33 l 568 33 l 568 -149 l 111 -149 l 111 1192 l 568 1192 z "},"\\":{"ha":738,"x_min":38,"x_max":665,"o":"m 665 0 l 522 0 l 38 1043 l 181 1043 l 665 0 z "},"]":{"ha":639,"x_min":71,"x_max":528,"o":"m 71 1010 l 71 1192 l 528 1192 l 528 -149 l 71 -149 l 71 33 l 346 33 l 346 1010 l 71 1010 z "},"_":{"ha":344,"x_min":0,"x_max":344,"o":"m 0 -122 l 0 0 l 344 0 l 344 -122 l 0 -122 z "},"a":{"ha":1017,"x_min":67,"x_max":915,"o":"m 915 721 l 915 0 l 408 0 q 275 27 338 0 q 167 100 213 54 q 94 208 121 146 q 67 342 67 271 l 67 379 q 94 513 67 450 q 167 621 121 575 q 275 694 213 667 q 408 721 338 721 l 915 721 m 725 531 l 408 531 q 350 519 378 531 q 301 486 322 507 q 269 438 281 465 q 257 379 257 411 l 257 342 q 269 283 257 311 q 301 235 281 256 q 350 202 322 214 q 408 190 378 190 l 725 190 l 725 531 z "},"b":{"ha":1053,"x_min":100,"x_max":986,"o":"m 644 721 q 778 694 715 721 q 886 621 840 667 q 959 513 932 575 q 986 379 986 450 l 986 342 q 959 208 986 271 q 886 100 932 146 q 778 27 840 54 q 644 0 715 0 l 100 0 l 100 972 l 290 972 l 290 190 l 644 190 q 703 202 676 190 q 751 235 731 214 q 783 283 771 256 q 796 342 796 311 l 796 379 q 783 438 796 411 q 751 486 771 465 q 703 519 731 507 q 644 531 676 531 l 376 531 l 376 721 l 644 721 z "},"c":{"ha":989,"x_min":67,"x_max":915,"o":"m 67 379 q 94 512 67 450 q 167 620 121 574 q 276 693 214 667 q 408 719 338 719 l 915 719 l 915 529 l 408 529 q 350 517 378 529 q 301 485 322 506 q 269 437 281 464 q 257 378 257 410 l 257 342 q 269 283 257 311 q 301 235 281 256 q 350 202 322 214 q 408 190 378 190 l 915 190 l 915 0 l 408 0 q 276 27 338 0 q 167 100 214 54 q 94 208 121 146 q 67 340 67 269 l 67 379 z "},"d":{"ha":1054,"x_min":67,"x_max":953,"o":"m 953 972 l 953 0 l 408 0 q 275 27 338 0 q 167 100 213 54 q 94 208 121 146 q 67 342 67 271 l 67 379 q 94 513 67 450 q 167 621 121 575 q 275 694 213 667 q 408 721 338 721 l 675 721 l 675 531 l 408 531 q 350 519 378 531 q 301 486 322 507 q 269 438 281 465 q 257 379 257 411 l 257 342 q 269 283 257 311 q 301 235 281 256 q 350 202 322 214 q 408 190 378 190 l 763 190 l 763 972 l 953 972 z "},"e":{"ha":997,"x_min":67,"x_max":928,"o":"m 928 318 l 260 318 q 310 226 268 263 q 408 190 353 190 l 890 190 l 890 0 l 408 0 q 275 27 338 0 q 167 100 213 54 q 94 208 121 146 q 67 342 67 271 l 67 379 q 94 513 67 450 q 167 621 121 575 q 275 694 213 667 q 408 721 338 721 l 589 721 q 722 694 660 721 q 829 622 783 668 q 901 515 875 576 q 928 383 928 453 l 928 318 m 738 404 q 710 468 729 439 q 663 511 693 492 q 581 531 632 531 l 408 531 q 310 494 353 531 q 260 404 268 458 l 738 404 z "},"f":{"ha":731,"x_min":61,"x_max":833,"o":"m 61 614 l 143 614 q 194 757 156 692 q 290 870 233 822 q 417 945 346 918 q 567 972 488 972 l 833 972 l 833 782 l 567 782 q 491 769 528 782 q 424 735 454 757 q 372 683 394 714 q 339 614 350 651 l 685 614 l 685 457 l 328 457 l 328 0 l 138 0 l 138 457 l 61 457 l 61 614 z "},"g":{"ha":1029,"x_min":67,"x_max":928,"o":"m 928 721 l 928 0 q 899 -130 926 -69 q 824 -235 871 -190 q 717 -306 778 -281 q 586 -332 656 -332 l 161 -332 l 161 -142 l 586 -142 q 645 -130 618 -142 q 693 -97 672 -118 q 726 -49 714 -76 q 738 10 738 -22 l 738 531 l 408 531 q 350 519 378 531 q 301 486 322 507 q 269 438 281 465 q 257 379 257 411 l 257 342 q 269 283 257 311 q 301 235 281 256 q 350 202 322 214 q 408 190 378 190 l 650 190 l 650 0 l 408 0 q 275 27 338 0 q 167 100 213 54 q 94 208 121 146 q 67 342 67 271 l 67 379 q 94 513 67 450 q 167 621 121 575 q 275 694 213 667 q 408 721 338 721 l 928 721 z "},"h":{"ha":1069,"x_min":100,"x_max":986,"o":"m 376 531 l 376 721 l 644 721 q 778 694 715 721 q 886 621 840 667 q 959 513 932 575 q 986 379 986 450 l 986 0 l 796 0 l 796 379 q 783 438 796 411 q 751 486 771 465 q 703 519 731 507 q 644 531 676 531 l 376 531 m 100 972 l 290 972 l 290 0 l 100 0 l 100 972 z "},"i":{"ha":393,"x_min":85,"x_max":306,"o":"m 194 754 q 118 785 147 754 q 88 863 85 818 q 118 940 85 907 q 194 972 147 972 q 274 941 242 972 q 306 863 306 910 q 274 784 306 814 q 194 754 242 754 m 101 0 l 101 721 l 292 721 l 292 0 l 101 0 z "},"j":{"ha":394,"x_min":-203,"x_max":303,"o":"m 192 754 q 114 785 144 754 q 83 863 83 815 q 115 940 83 908 q 192 972 146 972 q 269 940 238 972 q 294 905 285 925 q 301 863 303 885 q 294 820 303 840 q 269 785 285 800 q 192 754 238 754 m 101 721 l 292 721 l 292 10 q 265 -124 292 -61 q 192 -232 238 -186 q 83 -305 146 -278 q -50 -332 21 -332 l -203 -332 l -203 -142 l -50 -142 q 8 -130 -19 -142 q 57 -97 36 -118 q 90 -49 78 -76 q 101 10 101 -22 l 101 721 z "},"k":{"ha":974,"x_min":100,"x_max":949,"o":"m 100 972 l 290 972 l 290 438 q 308 450 290 438 q 353 483 325 463 q 416 528 381 503 q 488 581 451 554 q 682 721 574 642 l 949 721 l 451 361 l 949 0 l 682 0 q 488 140 574 79 q 416 192 451 167 q 353 238 381 218 q 308 271 325 258 q 290 283 290 283 l 290 0 l 100 0 l 100 972 z "},"l":{"ha":392,"x_min":100,"x_max":290,"o":"m 100 0 l 100 972 l 290 972 l 290 0 l 100 0 z "},"m":{"ha":1674,"x_min":83,"x_max":1589,"o":"m 83 0 l 83 379 q 110 513 83 450 q 183 621 138 575 q 292 694 229 667 q 425 721 354 721 l 590 721 q 724 694 661 721 q 836 615 788 667 q 949 694 885 667 q 1083 721 1013 721 l 1247 721 q 1381 694 1318 721 q 1489 621 1443 667 q 1562 513 1535 575 q 1589 379 1589 450 l 1589 0 l 1399 0 l 1399 379 q 1387 438 1399 411 q 1354 486 1375 465 q 1306 519 1333 507 q 1247 531 1279 531 l 1083 531 q 1025 519 1053 531 q 976 486 997 507 q 944 438 956 465 q 932 379 932 411 l 932 0 l 742 0 l 742 379 q 730 438 742 411 q 697 486 718 465 q 649 519 676 507 q 590 531 622 531 l 425 531 q 367 519 394 531 q 318 486 339 507 q 285 438 297 465 q 274 379 274 411 l 274 0 l 83 0 z "},"n":{"ha":1015,"x_min":83,"x_max":932,"o":"m 83 379 q 110 513 83 450 q 183 621 138 575 q 292 694 229 667 q 425 721 354 721 l 590 721 q 724 694 661 721 q 832 621 786 667 q 905 513 878 575 q 932 379 932 450 l 932 0 l 742 0 l 742 379 q 730 438 742 411 q 697 486 718 465 q 649 519 676 507 q 590 531 622 531 l 425 531 q 367 519 394 531 q 318 486 339 507 q 285 438 297 465 q 274 379 274 411 l 274 0 l 83 0 l 83 379 z "},"o":{"ha":1014,"x_min":67,"x_max":946,"o":"m 604 721 q 738 694 675 721 q 846 621 800 667 q 919 513 892 575 q 946 379 946 450 l 946 342 q 919 208 946 271 q 846 100 892 146 q 738 27 800 54 q 604 0 675 0 l 408 0 q 275 27 338 0 q 167 100 213 54 q 94 208 121 146 q 67 342 67 271 l 67 379 q 94 513 67 450 q 167 621 121 575 q 275 694 213 667 q 408 721 338 721 l 604 721 m 756 379 q 744 438 756 411 q 711 486 732 465 q 663 519 690 507 q 604 531 636 531 l 408 531 q 350 519 378 531 q 301 486 322 507 q 269 438 281 465 q 257 379 257 411 l 257 342 q 269 283 257 311 q 301 235 281 256 q 350 202 322 214 q 408 190 378 190 l 604 190 q 663 202 636 190 q 711 235 690 214 q 744 283 732 256 q 756 342 756 311 l 756 379 z "},"p":{"ha":1054,"x_min":101,"x_max":988,"o":"m 646 721 q 779 694 717 721 q 888 621 842 667 q 960 513 933 575 q 988 379 988 450 l 988 342 q 960 208 988 271 q 888 100 933 146 q 779 27 842 54 q 646 0 717 0 l 378 0 l 378 190 l 646 190 q 705 202 678 190 q 752 235 732 214 q 785 283 772 256 q 797 342 797 311 l 797 379 q 785 438 797 411 q 752 486 772 465 q 705 519 732 507 q 646 531 678 531 l 292 531 l 292 -250 l 101 -250 l 101 721 l 646 721 z "},"q":{"ha":1054,"x_min":67,"x_max":953,"o":"m 953 721 l 953 -250 l 763 -250 l 763 531 l 408 531 q 350 519 378 531 q 301 486 322 507 q 269 438 281 465 q 257 379 257 411 l 257 342 q 269 283 257 311 q 301 235 281 256 q 350 202 322 214 q 408 190 378 190 l 675 190 l 675 0 l 408 0 q 275 27 338 0 q 167 100 213 54 q 94 208 121 146 q 67 342 67 271 l 67 379 q 94 513 67 450 q 167 621 121 575 q 275 694 213 667 q 408 721 338 721 l 953 721 z "},"r":{"ha":860,"x_min":83,"x_max":817,"o":"m 817 721 l 817 531 l 425 531 q 367 519 394 531 q 318 486 339 507 q 285 438 297 465 q 274 379 274 411 l 274 0 l 83 0 l 83 379 q 110 513 83 450 q 183 621 138 575 q 292 694 229 667 q 425 721 354 721 l 817 721 z "},"s":{"ha":979,"x_min":79,"x_max":915,"o":"m 714 404 q 792 388 756 404 q 856 344 829 372 q 899 280 883 317 q 915 201 915 243 q 899 123 915 160 q 856 59 883 86 q 792 16 829 32 q 714 0 756 0 l 79 0 l 79 190 l 661 190 q 693 199 678 190 q 717 222 708 207 q 717 286 735 254 q 693 310 708 301 q 661 318 678 318 l 281 318 q 202 334 239 318 q 138 377 165 350 q 95 441 111 404 q 79 519 79 478 q 95 598 79 561 q 138 662 111 635 q 202 705 165 689 q 281 721 239 721 l 853 721 l 853 531 l 333 531 q 288 512 307 531 q 269 467 269 493 q 288 422 269 440 q 333 404 307 404 l 714 404 z "},"t":{"ha":844,"x_min":51,"x_max":772,"o":"m 128 721 l 128 1053 l 319 1053 l 319 721 l 772 721 l 772 565 l 319 565 l 319 342 q 331 283 319 311 q 363 235 343 256 q 411 202 383 214 q 469 190 439 190 l 772 190 l 772 0 l 469 0 q 337 27 399 0 q 228 100 275 54 q 155 208 182 146 q 128 342 128 271 l 128 565 l 51 565 l 51 721 l 128 721 z "},"u":{"ha":1015,"x_min":83,"x_max":932,"o":"m 83 342 l 83 721 l 274 721 l 274 342 q 285 283 274 311 q 318 235 297 256 q 367 202 339 214 q 425 190 394 190 l 590 190 q 649 202 622 190 q 697 235 676 214 q 730 283 718 256 q 742 342 742 311 l 742 721 l 932 721 l 932 342 q 905 208 932 271 q 832 100 878 146 q 724 27 786 54 q 590 0 661 0 l 425 0 q 292 27 354 0 q 183 100 229 54 q 110 208 138 146 q 83 342 83 271 z "},"v":{"ha":954,"x_min":28,"x_max":926,"o":"m 242 721 l 476 214 l 713 721 l 926 721 l 614 63 q 558 1 594 24 q 479 -21 522 -21 q 397 2 435 -21 q 338 65 358 25 l 28 721 l 242 721 z "},"w":{"ha":1388,"x_min":28,"x_max":1360,"o":"m 28 721 l 242 721 l 476 214 l 588 453 l 461 721 l 675 721 l 910 214 l 1146 721 l 1360 721 l 1047 63 q 992 1 1028 24 q 913 -21 956 -21 q 830 2 868 -21 q 771 65 792 25 l 693 229 l 614 63 q 558 1 594 24 q 479 -21 522 -21 q 397 2 435 -21 q 338 65 358 25 l 28 721 z "},"x":{"ha":1022,"x_min":31,"x_max":992,"o":"m 31 0 l 378 361 l 31 721 l 296 721 l 511 499 l 726 721 l 992 721 l 643 361 l 992 0 l 726 0 l 511 222 l 296 0 l 31 0 z "},"y":{"ha":1033,"x_min":83,"x_max":932,"o":"m 83 342 l 83 721 l 274 721 l 274 342 q 285 283 274 311 q 318 235 297 256 q 367 202 339 214 q 425 190 394 190 l 590 190 q 649 202 622 190 q 697 235 676 214 q 730 283 718 256 q 742 342 742 311 l 742 721 l 932 721 l 932 10 q 905 -124 932 -61 q 832 -232 878 -186 q 724 -305 786 -278 q 590 -332 661 -332 l 165 -332 l 165 -142 l 590 -142 q 649 -130 622 -142 q 697 -97 676 -118 q 730 -49 718 -76 q 742 10 742 -22 l 742 35 q 590 0 668 0 l 425 0 q 292 27 354 0 q 183 100 229 54 q 110 208 138 146 q 83 342 83 271 z "},"z":{"ha":900,"x_min":57,"x_max":842,"o":"m 757 721 q 800 708 781 721 q 831 675 819 696 q 840 631 842 654 q 824 588 838 607 l 372 190 l 815 190 l 815 0 l 143 0 q 99 13 119 0 q 68 46 79 25 q 59 90 57 67 q 76 133 61 114 l 528 531 l 85 531 l 85 721 l 757 721 z "},"{":{"ha":724,"x_min":89,"x_max":651,"o":"m 194 800 l 194 806 q 225 956 194 886 q 308 1078 256 1026 q 431 1161 360 1131 q 581 1192 501 1192 l 651 1192 l 651 1010 l 581 1010 q 501 994 539 1010 q 436 950 464 978 q 392 885 408 922 q 376 807 376 849 l 376 800 q 349 649 376 722 q 271 518 322 576 l 275 514 q 351 385 325 456 q 376 238 376 314 q 392 158 376 196 q 436 93 408 121 q 501 49 464 65 q 581 33 539 33 l 651 33 l 651 -149 l 581 -149 q 431 -118 501 -149 q 308 -35 360 -87 q 225 87 256 17 q 194 238 194 157 q 167 388 194 315 q 89 518 140 460 q 167 649 140 576 q 194 800 194 722 z "},"|":{"ha":367,"x_min":111,"x_max":254,"o":"m 111 0 l 111 1043 l 254 1043 l 254 0 l 111 0 z "},"}":{"ha":724,"x_min":71,"x_max":633,"o":"m 142 33 q 221 49 183 33 q 286 93 258 65 q 330 158 314 121 q 346 238 346 196 q 372 385 346 314 q 447 514 399 456 l 451 518 q 373 649 400 576 q 346 800 346 722 l 346 807 q 330 885 346 849 q 286 950 314 922 q 221 994 258 978 q 142 1010 183 1010 l 71 1010 l 71 1192 l 142 1192 q 292 1161 222 1192 q 415 1078 363 1131 q 497 956 467 1026 q 528 806 528 886 l 528 800 q 555 650 528 722 q 633 518 582 578 q 555 388 582 460 q 528 238 528 315 q 497 88 528 158 q 415 -35 467 17 q 292 -118 363 -87 q 142 -149 222 -149 l 71 -149 l 71 33 l 142 33 z "}," ":{"ha":563,"x_min":0,"x_max":0,"o":""},"¡":{"ha":403,"x_min":100,"x_max":299,"o":"m 200 863 q 131 890 158 863 q 103 958 103 917 q 131 1031 100 1000 q 199 1058 158 1058 q 269 1028 240 1058 q 299 958 297 999 q 269 890 299 918 q 200 863 240 863 m 117 0 l 117 708 l 289 708 l 289 0 l 117 0 z "},"¢":{"ha":1054,"x_min":94,"x_max":957,"o":"m 126 699 q 188 804 149 758 q 276 881 226 850 q 383 926 325 911 q 503 942 442 942 l 607 942 l 607 1043 l 688 1043 l 688 942 l 957 942 l 957 793 l 688 793 l 688 251 l 957 251 l 957 101 l 688 101 l 688 0 l 607 0 l 607 101 l 503 101 q 336 135 411 101 q 208 228 261 169 q 125 364 154 286 q 96 529 96 442 q 126 699 94 614 m 503 251 l 607 251 l 607 793 l 503 793 q 395 772 443 793 q 313 715 347 751 q 260 628 279 678 q 242 522 242 579 q 261 416 242 465 q 315 330 281 367 q 398 272 350 293 q 503 251 446 251 z "},"£":{"ha":1094,"x_min":93,"x_max":1011,"o":"m 93 182 l 221 182 l 221 469 l 149 469 l 149 604 l 221 604 l 221 735 q 244 867 221 810 q 308 963 267 924 q 409 1023 350 1003 q 540 1043 468 1043 l 858 1043 l 858 861 l 568 861 q 499 853 531 861 q 443 828 467 846 q 406 781 419 810 q 393 713 393 753 l 393 604 l 683 604 l 683 469 l 393 469 l 393 182 l 1011 182 l 1011 0 l 93 0 l 93 182 z "},"¥":{"ha":1136,"x_min":33,"x_max":1099,"o":"m 33 1043 l 251 1043 l 574 543 l 885 1043 l 1099 1043 l 728 479 l 961 479 l 961 356 l 656 356 l 656 229 l 961 229 l 961 106 l 656 106 l 656 0 l 483 0 l 483 106 l 189 106 l 189 229 l 483 229 l 483 356 l 189 356 l 189 479 l 411 479 l 33 1043 z "},"§":{"ha":1096,"x_min":94,"x_max":1004,"o":"m 965 132 q 994 64 985 100 q 1003 -8 1004 28 q 980 -129 1003 -76 q 917 -217 957 -182 q 822 -271 876 -253 q 704 -289 768 -289 l 211 -289 l 211 -115 l 675 -115 q 733 -108 706 -115 q 782 -86 761 -101 q 815 -47 803 -71 q 828 10 828 -24 q 796 99 831 63 q 754 126 776 118 q 704 133 732 133 l 403 133 q 302 146 349 133 q 221 185 256 158 q 167 253 186 211 q 147 353 147 294 q 166 455 147 406 q 232 532 185 504 q 133 625 167 565 q 97 768 94 690 q 120 885 97 833 q 183 972 143 936 q 278 1025 224 1007 q 394 1043 332 1043 l 888 1043 l 888 869 l 425 869 q 367 863 394 869 q 317 841 339 856 q 283 802 296 826 q 269 744 269 778 q 303 656 267 696 q 393 621 338 621 l 696 621 q 798 609 751 621 q 878 571 844 597 q 932 502 913 544 q 951 400 951 460 q 929 294 953 347 q 865 221 908 249 q 965 132 929 190 m 764 297 q 792 375 794 329 q 761 457 794 422 q 667 488 729 488 l 424 488 q 335 457 361 488 q 306 381 303 424 q 338 297 303 332 q 432 267 371 267 l 675 267 q 764 297 733 267 z "},"©":{"ha":1257,"x_min":93,"x_max":1160,"o":"m 138 736 q 219 872 168 811 q 333 974 269 932 q 472 1040 397 1017 q 628 1064 547 1064 q 835 1022 739 1064 q 1004 908 932 981 q 1118 739 1076 836 q 1160 532 1160 642 q 1117 325 1160 422 q 1003 156 1075 228 q 834 43 931 85 q 629 1 738 1 q 427 41 525 1 q 253 157 329 81 q 159 283 196 214 q 108 428 122 353 q 100 583 93 504 q 138 736 107 661 m 203 532 q 236 367 203 444 q 327 231 269 289 q 463 140 385 174 q 628 107 540 107 q 793 140 715 107 q 928 231 871 174 q 1020 367 986 289 q 1054 532 1054 444 q 1021 697 1054 619 q 930 833 988 775 q 794 925 872 892 q 628 958 717 958 q 463 925 540 958 q 327 833 385 892 q 236 697 269 775 q 203 532 203 619 m 264 539 q 276 626 264 583 q 310 706 288 669 q 366 772 332 743 q 443 815 400 800 q 561 838 497 838 l 890 838 l 890 731 l 561 731 q 453 700 499 731 q 385 614 408 669 q 371 533 371 576 q 385 455 371 492 q 424 392 399 418 q 483 350 449 365 q 561 335 518 335 l 890 335 l 890 228 l 561 228 q 440 253 494 228 q 346 320 385 278 q 285 419 307 363 q 264 539 264 475 z "},"«":{"ha":869,"x_min":76,"x_max":781,"o":"m 279 532 l 508 304 l 406 203 l 76 532 l 406 863 l 508 761 l 279 532 m 553 532 l 781 304 l 679 203 l 350 532 l 679 863 l 781 761 l 553 532 z "},"­":{"ha":0,"x_min":0,"x_max":0,"o":""},"®":{"ha":964,"x_min":93,"x_max":869,"o":"m 482 1053 q 633 1022 563 1053 q 756 939 703 992 q 839 816 808 886 q 869 665 869 746 q 839 514 869 585 q 756 390 808 443 q 633 307 703 338 q 482 276 563 276 q 331 307 401 276 q 207 390 260 338 q 124 514 154 443 q 93 665 93 585 q 124 816 93 746 q 207 939 154 886 q 331 1022 260 992 q 482 1053 401 1053 m 281 436 q 376 380 324 399 q 481 361 428 361 q 602 387 543 361 q 706 461 661 413 l 642 461 l 539 574 l 386 574 l 386 638 l 556 638 q 587 641 574 638 q 614 658 600 644 q 633 718 636 685 q 613 778 636 753 q 585 793 600 789 q 556 797 571 797 l 333 797 l 333 461 l 263 461 l 263 868 l 556 868 q 618 858 589 868 q 642 846 631 853 q 664 828 654 839 q 694 778 685 808 q 704 719 704 747 q 684 638 704 674 q 619 585 664 601 l 722 481 q 775 588 760 531 q 783 703 790 646 q 748 812 776 760 q 671 903 719 864 q 580 953 629 936 q 481 969 531 969 q 353 942 414 969 q 247 860 292 914 q 191 756 208 813 q 178 641 174 699 q 208 530 182 583 q 281 436 235 476 z "},"°":{"ha":397,"x_min":71,"x_max":325,"o":"m 199 1038 q 288 1001 251 1038 q 325 911 325 964 q 315 861 325 885 q 288 820 306 838 q 248 793 271 803 q 199 783 225 783 q 149 793 172 783 q 108 820 125 803 q 81 861 90 838 q 71 911 71 885 q 81 960 71 938 q 108 1001 90 983 q 149 1028 125 1018 q 199 1038 172 1038 m 199 868 q 228 881 217 868 q 240 911 240 893 q 214 950 240 939 q 199 953 208 953 q 168 940 181 953 q 156 919 158 932 q 158 894 154 906 q 199 868 169 868 z "},"²":{"ha":800,"x_min":92,"x_max":708,"o":"m 196 528 l 699 528 l 699 417 l 92 417 l 92 601 q 143 741 92 697 q 286 785 194 785 l 515 785 q 574 804 549 785 q 594 861 597 828 q 574 918 597 894 q 515 938 549 938 l 97 938 l 97 1049 l 515 1049 q 592 1037 554 1049 q 658 999 629 1025 q 697 940 685 972 q 708 871 708 907 q 696 799 708 835 q 657 742 681 765 q 597 704 633 718 q 515 692 556 692 l 286 692 q 196 610 196 692 l 196 528 z "},"³":{"ha":813,"x_min":83,"x_max":722,"o":"m 692 700 q 719 608 722 660 q 703 527 719 563 q 660 467 688 492 q 597 429 633 442 q 517 417 560 417 l 83 417 l 83 526 l 489 526 q 575 547 536 526 q 607 611 610 569 q 583 671 610 647 q 513 692 553 692 l 233 692 l 233 785 l 504 785 q 574 801 551 785 q 596 861 596 819 q 567 922 596 906 q 526 935 546 932 q 482 939 506 939 l 86 939 l 86 1049 l 504 1049 q 546 1047 525 1049 q 588 1038 567 1044 q 649 1009 621 1031 q 693 956 678 988 q 707 885 708 919 q 688 801 707 836 q 621 750 668 767 q 692 700 663 738 z "},"·":{"ha":340,"x_min":72,"x_max":268,"o":"m 268 517 q 238 446 268 472 q 164 419 208 419 q 98 449 124 419 q 72 517 72 478 q 101 588 72 561 q 172 614 129 614 q 240 585 213 614 q 268 517 268 557 z "},"¹":{"ha":431,"x_min":75,"x_max":333,"o":"m 333 842 l 333 417 l 225 417 l 225 842 q 201 914 228 882 q 171 933 186 929 q 136 938 156 938 l 75 938 l 75 1049 l 136 1049 q 285 993 236 1049 q 333 842 333 938 z "},"»":{"ha":869,"x_min":88,"x_max":792,"o":"m 792 532 l 463 203 l 361 304 l 589 532 l 361 761 l 463 863 l 792 532 m 519 532 l 189 203 l 88 304 l 315 532 l 88 761 l 189 863 l 519 532 z "},"¿":{"ha":1138,"x_min":90,"x_max":1047,"o":"m 861 860 q 790 888 818 860 q 764 956 761 917 q 790 1028 761 997 q 861 1054 818 1054 q 930 1025 901 1054 q 958 956 958 996 q 952 919 960 936 q 931 888 944 901 q 861 860 903 860 m 1047 182 l 1047 0 l 408 0 q 282 19 342 0 q 172 83 222 39 q 111 176 131 125 q 90 294 90 233 q 111 413 90 354 q 160 492 129 458 q 229 547 190 525 q 313 580 268 569 q 406 590 358 590 l 711 590 q 778 650 778 590 l 778 707 l 950 707 l 950 646 q 932 551 950 590 q 883 485 914 511 q 808 448 851 460 q 711 436 764 436 l 408 436 q 357 429 381 436 q 313 403 333 422 q 284 360 293 385 q 276 310 275 336 q 284 259 275 283 q 313 217 293 235 q 408 182 353 182 l 1047 182 z "},"À":{"ha":1207,"x_min":19,"x_max":1188,"o":"m 19 -1 l 465 908 q 522 970 485 947 q 601 993 558 993 q 684 969 646 993 q 742 906 722 946 l 1188 -1 l 974 -1 l 878 194 l 328 194 l 233 -1 l 19 -1 m 421 385 l 785 385 l 603 757 l 421 385 m 638 1317 l 742 1058 l 644 1058 l 464 1317 l 638 1317 z "},"Á":{"ha":1207,"x_min":19,"x_max":1188,"o":"m 19 -1 l 465 908 q 522 970 485 947 q 601 993 558 993 q 684 969 646 993 q 742 906 722 946 l 1188 -1 l 974 -1 l 878 194 l 328 194 l 233 -1 l 19 -1 m 421 385 l 785 385 l 603 757 l 421 385 m 464 1058 l 568 1317 l 742 1317 l 563 1058 l 464 1058 z "},"Â":{"ha":1207,"x_min":19,"x_max":1188,"o":"m 465 908 q 522 970 485 947 q 601 993 558 993 q 684 969 646 993 q 742 906 722 946 l 1188 -1 l 974 -1 l 878 194 l 328 194 l 233 -1 l 19 -1 l 465 908 m 421 385 l 785 385 l 603 757 l 421 385 m 378 1058 l 558 1317 l 649 1317 l 828 1058 l 654 1058 l 603 1186 l 551 1058 l 378 1058 z "},"Ã":{"ha":1207,"x_min":19,"x_max":1188,"o":"m 465 908 q 522 970 485 947 q 601 993 558 993 q 684 969 646 993 q 742 906 722 946 l 1188 -1 l 974 -1 l 878 194 l 328 194 l 233 -1 l 19 -1 l 465 908 m 503 1257 q 563 1247 535 1257 q 617 1224 592 1236 q 665 1201 642 1211 q 708 1190 688 1190 q 753 1208 736 1190 q 767 1257 769 1225 l 865 1257 q 836 1114 874 1169 q 711 1058 799 1058 q 649 1069 676 1058 q 598 1091 622 1079 q 549 1113 574 1103 q 496 1124 525 1124 q 453 1108 468 1124 q 438 1057 438 1092 l 339 1057 q 383 1203 336 1150 q 503 1257 429 1257 m 421 385 l 785 385 l 603 757 l 421 385 z "},"Ä":{"ha":1207,"x_min":19,"x_max":1188,"o":"m 19 -1 l 465 908 q 522 970 485 947 q 601 993 558 993 q 684 969 646 993 q 742 906 722 946 l 1188 -1 l 974 -1 l 878 194 l 328 194 l 233 -1 l 19 -1 m 785 385 l 603 757 l 421 385 l 785 385 m 639 1164 q 668 1239 639 1208 q 742 1269 697 1269 q 815 1239 785 1269 q 846 1164 846 1208 q 815 1090 846 1121 q 742 1058 785 1060 q 668 1090 697 1061 q 639 1164 639 1119 m 361 1164 q 391 1239 361 1208 q 465 1269 421 1269 q 539 1238 510 1269 q 568 1164 568 1207 q 538 1091 568 1121 q 465 1058 508 1061 q 391 1089 421 1058 q 361 1164 361 1119 z "},"Å":{"ha":1207,"x_min":19,"x_max":1188,"o":"m 19 -1 l 465 908 q 522 970 485 947 q 601 993 558 993 q 684 969 646 993 q 742 906 722 946 l 1188 -1 l 974 -1 l 878 194 l 328 194 l 233 -1 l 19 -1 m 601 1378 q 664 1365 635 1378 q 715 1331 693 1353 q 750 1279 738 1308 q 763 1217 763 1250 q 749 1155 763 1183 q 715 1105 736 1126 q 664 1071 693 1083 q 601 1058 635 1058 q 541 1072 569 1058 q 491 1106 513 1085 q 457 1156 469 1128 q 444 1217 444 1185 q 456 1279 444 1250 q 490 1330 468 1308 q 540 1365 511 1351 q 601 1378 568 1378 m 421 385 l 785 385 l 603 757 l 421 385 m 544 1217 q 561 1176 544 1193 q 601 1158 578 1160 q 644 1176 626 1158 q 663 1217 661 1193 q 644 1259 663 1242 q 601 1278 626 1276 q 560 1258 578 1276 q 544 1217 543 1240 z "},"Æ":{"ha":1876,"x_min":11,"x_max":1793,"o":"m 992 971 l 1793 971 l 1793 781 l 1182 781 l 1182 190 l 1793 190 l 1793 -1 l 965 -1 l 967 194 l 417 194 l 225 -1 l 11 -1 l 992 971 m 1267 581 l 1747 581 l 1747 389 l 1267 389 l 1267 581 m 967 385 l 968 757 l 604 385 l 967 385 z "},"Ç":{"ha":1086,"x_min":72,"x_max":1025,"o":"m 501 971 l 1025 971 l 1025 781 l 501 781 q 408 762 451 781 q 333 710 365 743 q 281 635 300 678 q 263 542 263 592 l 263 428 q 281 336 263 379 q 333 260 300 293 q 408 209 365 228 q 501 190 451 190 l 1025 190 l 1025 -1 l 704 -1 l 674 -50 q 697 -46 685 -47 q 719 -44 708 -44 q 822 -77 779 -44 q 864 -172 864 -110 q 847 -244 864 -214 q 801 -294 829 -275 q 738 -323 774 -314 q 665 -332 703 -332 q 569 -318 617 -332 q 481 -276 522 -304 l 515 -193 q 631 -232 567 -229 q 685 -217 663 -232 q 708 -171 708 -203 q 691 -133 707 -149 q 651 -118 675 -118 q 618 -122 635 -118 q 586 -133 601 -125 l 524 -96 l 589 -1 l 501 -1 q 335 33 413 -1 q 199 125 257 67 q 106 261 140 183 q 72 428 72 339 l 72 542 q 106 708 72 631 q 199 844 140 786 q 335 937 257 903 q 501 971 413 971 z "},"È":{"ha":999,"x_min":111,"x_max":913,"o":"m 111 971 l 913 971 l 913 781 l 301 781 l 301 190 l 913 190 l 913 -1 l 111 -1 l 111 971 m 388 581 l 867 581 l 867 389 l 388 389 l 388 581 m 522 1317 l 626 1058 l 529 1058 l 349 1317 l 522 1317 z "},"É":{"ha":999,"x_min":111,"x_max":913,"o":"m 111 971 l 913 971 l 913 781 l 301 781 l 301 190 l 913 190 l 913 -1 l 111 -1 l 111 971 m 388 581 l 867 581 l 867 389 l 388 389 l 388 581 m 478 1317 l 651 1317 l 471 1058 l 374 1058 l 478 1317 z "},"Ê":{"ha":999,"x_min":111,"x_max":913,"o":"m 111 -1 l 111 971 l 913 971 l 913 781 l 301 781 l 301 190 l 913 190 l 913 -1 l 111 -1 m 867 581 l 867 389 l 388 389 l 388 581 l 867 581 m 288 1058 l 467 1317 l 557 1317 l 738 1058 l 563 1058 l 513 1186 l 461 1058 l 288 1058 z "},"Ë":{"ha":999,"x_min":111,"x_max":913,"o":"m 111 971 l 913 971 l 913 781 l 301 781 l 301 190 l 913 190 l 913 -1 l 111 -1 l 111 971 m 867 581 l 867 389 l 388 389 l 388 581 l 867 581 m 547 1164 q 576 1238 547 1207 q 650 1269 606 1269 q 724 1239 694 1269 q 754 1164 754 1208 q 724 1090 754 1121 q 650 1058 694 1060 q 577 1090 607 1061 q 547 1164 547 1119 m 269 1164 q 299 1239 269 1208 q 374 1269 329 1269 q 447 1239 418 1269 q 476 1164 476 1208 q 447 1090 476 1119 q 374 1058 418 1061 q 300 1090 331 1058 q 269 1164 269 1122 z "},"Ì":{"ha":415,"x_min":68,"x_max":346,"o":"m 247 1058 l 68 1317 l 242 1317 l 346 1058 l 247 1058 m 111 -1 l 111 971 l 303 971 l 303 -1 l 111 -1 z "},"Í":{"ha":415,"x_min":68,"x_max":346,"o":"m 167 1058 l 68 1058 l 172 1317 l 346 1317 l 167 1058 m 111 -1 l 111 971 l 303 971 l 303 -1 l 111 -1 z "},"Î":{"ha":414,"x_min":-18,"x_max":432,"o":"m 111 -1 l 111 971 l 303 971 l 303 -1 l 111 -1 m -18 1058 l 161 1317 l 251 1317 l 432 1058 l 258 1058 l 207 1186 l 156 1058 l -18 1058 z "},"Ï":{"ha":413,"x_min":-36,"x_max":449,"o":"m 344 1269 q 419 1239 389 1269 q 449 1164 449 1208 q 419 1090 449 1121 q 344 1058 389 1060 q 271 1090 300 1061 q 242 1164 242 1119 q 271 1239 242 1206 q 344 1269 301 1269 m 171 1164 q 142 1090 171 1119 q 68 1058 113 1061 q -6 1090 25 1058 q -36 1164 -36 1122 q -6 1239 -36 1208 q 68 1269 24 1269 q 142 1239 111 1269 q 171 1164 171 1206 m 111 -1 l 111 971 l 301 971 l 301 -1 l 111 -1 z "},"Ñ":{"ha":1168,"x_min":111,"x_max":1057,"o":"m 333 971 l 865 286 l 865 971 l 1057 971 l 1057 -1 l 844 -1 l 301 676 l 301 -1 l 111 -1 l 111 971 l 333 971 m 483 1254 q 544 1244 515 1254 q 597 1221 572 1233 q 645 1198 622 1208 q 689 1188 668 1188 q 733 1205 717 1188 q 747 1254 750 1222 l 846 1256 q 817 1112 854 1167 q 692 1057 779 1057 l 689 1057 q 628 1067 654 1057 q 578 1088 601 1076 q 530 1110 554 1100 q 476 1119 506 1119 q 433 1104 449 1119 q 418 1054 418 1089 l 321 1054 q 363 1201 317 1147 q 483 1254 410 1254 z "},"Ò":{"ha":1203,"x_min":72,"x_max":1129,"o":"m 642 1058 l 463 1317 l 636 1317 l 740 1058 l 642 1058 m 700 971 q 867 937 789 971 q 1004 844 946 903 q 1096 708 1063 786 q 1129 542 1129 631 l 1129 428 q 1096 261 1129 339 q 1004 125 1063 183 q 867 33 946 67 q 700 -1 789 -1 l 501 -1 q 335 33 413 -1 q 199 125 257 67 q 106 261 140 183 q 72 428 72 339 l 72 542 q 106 708 72 631 q 199 844 140 786 q 335 937 257 903 q 501 971 413 971 l 700 971 m 939 542 q 920 635 939 592 q 869 710 901 678 q 793 762 836 743 q 700 781 750 781 l 501 781 q 408 762 451 781 q 333 710 365 743 q 281 635 300 678 q 263 542 263 592 l 263 428 q 281 336 263 379 q 333 260 300 293 q 408 209 365 228 q 501 190 451 190 l 700 190 q 793 209 750 190 q 869 260 836 228 q 920 336 901 293 q 939 428 939 379 l 939 542 z "},"Ó":{"ha":1203,"x_min":72,"x_max":1129,"o":"m 561 1063 l 463 1061 l 567 1319 l 740 1321 l 561 1063 m 700 971 q 867 937 789 971 q 1004 844 946 903 q 1096 708 1063 786 q 1129 542 1129 631 l 1129 428 q 1096 261 1129 339 q 1004 125 1063 183 q 867 33 946 67 q 700 -1 789 -1 l 501 -1 q 335 33 413 -1 q 199 125 257 67 q 106 261 140 183 q 72 428 72 339 l 72 542 q 106 708 72 631 q 199 844 140 786 q 335 937 257 903 q 501 971 413 971 l 700 971 m 939 542 q 920 635 939 592 q 869 710 901 678 q 793 762 836 743 q 700 781 750 781 l 501 781 q 408 762 451 781 q 333 710 365 743 q 281 635 300 678 q 263 542 263 592 l 263 428 q 281 336 263 379 q 333 260 300 293 q 408 209 365 228 q 501 190 451 190 l 700 190 q 793 209 750 190 q 869 260 836 228 q 920 336 901 293 q 939 428 939 379 l 939 542 z "},"Ô":{"ha":1203,"x_min":72,"x_max":1129,"o":"m 501 971 l 700 971 q 867 937 789 971 q 1004 844 946 903 q 1096 708 1063 786 q 1129 542 1129 631 l 1129 428 q 1096 261 1129 339 q 1004 125 1063 183 q 867 33 946 67 q 700 -1 789 -1 l 501 -1 q 335 33 413 -1 q 199 125 257 67 q 106 261 140 183 q 72 428 72 339 l 72 542 q 106 708 72 631 q 199 844 140 786 q 335 937 257 903 q 501 971 413 971 m 263 542 l 263 428 q 281 336 263 379 q 333 260 300 293 q 408 209 365 228 q 501 190 451 190 l 700 190 q 793 209 750 190 q 869 260 836 228 q 920 336 901 293 q 939 428 939 379 l 939 542 q 920 635 939 592 q 869 710 901 678 q 793 762 836 743 q 700 781 750 781 l 501 781 q 408 762 451 781 q 333 710 365 743 q 281 635 300 678 q 263 542 263 592 m 376 1058 l 556 1317 l 646 1317 l 826 1058 l 653 1058 l 601 1186 l 550 1058 l 376 1058 z "},"Õ":{"ha":1203,"x_min":72,"x_max":1129,"o":"m 338 1057 q 380 1203 333 1150 q 501 1257 426 1257 q 562 1247 533 1257 q 615 1224 590 1236 q 663 1201 640 1211 q 706 1190 685 1190 q 751 1208 733 1190 q 765 1257 768 1225 l 864 1257 q 835 1114 872 1169 q 708 1058 797 1058 q 647 1069 674 1058 q 596 1091 619 1079 q 548 1113 572 1103 q 493 1124 524 1124 q 436 1057 436 1124 l 338 1057 m 700 971 q 867 937 789 971 q 1004 844 946 903 q 1096 708 1063 786 q 1129 542 1129 631 l 1129 428 q 1096 261 1129 339 q 1004 125 1063 183 q 867 33 946 67 q 700 -1 789 -1 l 501 -1 q 335 33 413 -1 q 199 125 257 67 q 106 261 140 183 q 72 428 72 339 l 72 542 q 106 708 72 631 q 199 844 140 786 q 335 937 257 903 q 501 971 413 971 l 700 971 m 939 542 q 920 635 939 592 q 869 710 901 678 q 793 762 836 743 q 700 781 750 781 l 501 781 q 408 762 451 781 q 333 710 365 743 q 281 635 300 678 q 263 542 263 592 l 263 428 q 281 336 263 379 q 333 260 300 293 q 408 209 365 228 q 501 190 451 190 l 700 190 q 793 209 750 190 q 869 260 836 228 q 920 336 901 293 q 939 428 939 379 l 939 542 z "},"Ö":{"ha":1203,"x_min":72,"x_max":1129,"o":"m 739 1058 q 667 1090 696 1061 q 638 1164 635 1122 q 667 1239 636 1206 q 739 1269 697 1269 q 813 1239 783 1269 q 843 1164 843 1208 q 813 1090 843 1121 q 739 1058 783 1060 m 463 1058 q 389 1090 419 1058 q 358 1164 358 1122 q 388 1239 358 1208 q 463 1269 418 1269 q 536 1239 507 1269 q 565 1164 565 1208 q 536 1090 565 1119 q 463 1058 507 1061 m 700 971 q 867 937 789 971 q 1004 844 946 903 q 1096 708 1063 786 q 1129 542 1129 631 l 1129 428 q 1096 261 1129 339 q 1004 125 1063 183 q 867 33 946 67 q 700 -1 789 -1 l 501 -1 q 335 33 413 -1 q 199 125 257 67 q 106 261 140 183 q 72 428 72 339 l 72 542 q 106 708 72 631 q 199 844 140 786 q 335 937 257 903 q 501 971 413 971 l 700 971 m 939 542 q 920 635 939 592 q 869 710 901 678 q 793 762 836 743 q 700 781 750 781 l 501 781 q 408 762 451 781 q 333 710 365 743 q 281 635 300 678 q 263 542 263 592 l 263 428 q 281 336 263 379 q 333 260 300 293 q 408 209 365 228 q 501 190 451 190 l 700 190 q 793 209 750 190 q 869 260 836 228 q 920 336 901 293 q 939 428 939 379 l 939 542 z "},"×":{"ha":543,"x_min":82,"x_max":460,"o":"m 82 633 l 168 719 l 271 617 l 374 719 l 460 633 l 357 531 l 460 428 l 374 342 l 271 444 l 168 342 l 82 428 l 185 531 l 82 633 z "},"Ø":{"ha":1203,"x_min":72,"x_max":1131,"o":"m 881 931 q 983 864 938 904 q 1062 773 1029 824 q 1113 663 1094 722 q 1131 542 1131 604 l 1131 428 q 1097 261 1131 339 q 1004 125 1063 183 q 867 33 946 67 q 700 -1 789 -1 l 501 -1 q 449 3 476 -1 l 431 -37 l 288 -37 l 322 39 q 219 106 265 65 q 140 197 172 146 q 90 306 107 247 q 72 428 72 365 l 72 542 q 106 708 72 631 q 199 844 140 786 q 335 937 257 903 q 501 971 413 971 l 700 971 q 753 967 728 971 l 771 1007 l 915 1007 l 881 931 m 667 781 l 501 781 q 408 762 451 781 q 333 710 365 743 q 281 635 300 678 q 263 542 263 592 l 263 428 q 301 299 263 357 q 403 211 339 240 l 667 781 m 939 542 q 901 671 939 613 q 800 758 864 729 l 536 190 l 700 190 q 793 209 750 190 q 869 260 836 228 q 920 336 901 293 q 939 428 939 379 l 939 542 z "},"Ù":{"ha":1217,"x_min":92,"x_max":1125,"o":"m 92 971 l 282 971 l 282 428 q 301 336 282 379 q 352 260 319 293 q 428 209 385 228 q 521 190 471 190 l 694 190 q 788 209 744 190 q 863 260 831 228 q 915 336 896 293 q 933 428 933 379 l 933 971 l 1125 971 l 1125 428 q 1091 261 1125 339 q 999 125 1057 183 q 862 33 940 67 q 694 -1 783 -1 l 521 -1 q 354 33 432 -1 q 218 125 276 67 q 126 261 160 183 q 92 428 92 339 l 92 971 m 469 1317 l 643 1317 l 747 1058 l 649 1058 l 469 1317 z "},"Ú":{"ha":1217,"x_min":92,"x_max":1124,"o":"m 282 971 l 282 428 q 301 336 282 379 q 352 260 319 293 q 428 209 385 228 q 521 190 471 190 l 694 190 q 788 209 744 190 q 863 260 831 228 q 915 336 896 293 q 933 428 933 379 l 933 971 l 1124 971 l 1124 428 q 1090 261 1124 339 q 999 125 1057 183 q 862 33 940 67 q 694 -1 783 -1 l 521 -1 q 354 33 432 -1 q 218 125 276 67 q 126 261 160 183 q 92 428 92 339 l 92 971 l 282 971 m 574 1317 l 747 1317 l 567 1058 l 469 1058 l 574 1317 z "},"Û":{"ha":1217,"x_min":92,"x_max":1125,"o":"m 92 428 l 92 971 l 282 971 l 282 428 q 301 336 282 379 q 352 260 319 293 q 428 209 385 228 q 521 190 471 190 l 694 190 q 788 209 744 190 q 863 260 831 228 q 915 336 896 293 q 933 428 933 379 l 933 971 l 1125 971 l 1125 428 q 1091 261 1125 339 q 999 125 1057 183 q 862 33 940 67 q 694 -1 783 -1 l 521 -1 q 354 33 432 -1 q 218 125 276 67 q 126 261 160 183 q 92 428 92 339 m 563 1317 l 653 1317 l 833 1058 l 660 1058 l 608 1186 l 557 1058 l 383 1058 l 563 1317 z "},"Ü":{"ha":1217,"x_min":92,"x_max":1124,"o":"m 282 971 l 282 428 q 301 336 282 379 q 352 260 319 293 q 428 209 385 228 q 521 190 471 190 l 694 190 q 788 209 744 190 q 863 260 831 228 q 915 336 896 293 q 933 428 933 379 l 933 971 l 1124 971 l 1124 428 q 1090 261 1124 339 q 999 125 1057 183 q 862 33 940 67 q 694 -1 783 -1 l 521 -1 q 354 33 432 -1 q 218 125 276 67 q 126 261 160 183 q 92 428 92 339 l 92 971 l 282 971 m 644 1164 q 674 1238 644 1207 q 746 1269 703 1268 q 820 1239 790 1269 q 850 1164 850 1208 q 820 1090 850 1121 q 746 1058 790 1060 q 674 1091 703 1061 q 644 1164 644 1121 m 471 1269 q 546 1239 515 1269 q 575 1184 569 1215 q 568 1124 581 1153 q 528 1076 556 1093 q 469 1058 501 1058 q 396 1090 426 1058 q 365 1164 365 1121 q 397 1239 365 1208 q 471 1269 428 1269 z "},"Ý":{"ha":1090,"x_min":10,"x_max":1079,"o":"m 10 971 l 225 971 l 544 571 l 864 971 l 1079 971 l 640 440 l 640 -1 l 450 -1 l 450 440 l 10 971 m 540 1317 l 714 1317 l 535 1058 l 436 1058 l 540 1317 z "},"à":{"ha":1017,"x_min":67,"x_max":915,"o":"m 558 786 l 379 1044 l 553 1044 l 657 786 l 558 786 m 915 719 l 915 -1 l 408 -1 q 275 26 338 -1 q 167 99 213 53 q 94 207 121 144 q 67 340 67 269 l 67 378 q 94 511 67 449 q 167 619 121 574 q 275 692 213 665 q 408 719 338 719 l 915 719 m 725 529 l 408 529 q 350 517 378 529 q 301 485 322 506 q 269 437 281 464 q 257 378 257 410 l 257 340 q 269 282 257 310 q 301 234 281 254 q 350 202 322 214 q 408 190 378 190 l 725 190 l 725 529 z "},"á":{"ha":1017,"x_min":67,"x_max":915,"o":"m 450 786 l 351 786 l 456 1044 l 631 1044 l 450 786 m 915 719 l 915 -1 l 408 -1 q 275 26 338 -1 q 167 99 213 53 q 94 207 121 144 q 67 340 67 269 l 67 378 q 94 511 67 449 q 167 619 121 574 q 275 692 213 665 q 408 719 338 719 l 915 719 m 725 529 l 408 529 q 350 517 378 529 q 301 485 322 506 q 269 437 281 464 q 257 378 257 410 l 257 340 q 269 282 257 310 q 301 234 281 254 q 350 202 322 214 q 408 190 378 190 l 725 190 l 725 529 z "},"â":{"ha":1017,"x_min":67,"x_max":915,"o":"m 408 719 l 915 719 l 915 -1 l 408 -1 q 275 26 338 -1 q 167 99 213 53 q 94 207 121 144 q 67 340 67 269 l 67 378 q 94 511 67 449 q 167 619 121 574 q 275 692 213 665 q 408 719 338 719 m 257 340 q 269 282 257 310 q 301 234 281 254 q 350 202 322 214 q 408 190 378 190 l 725 190 l 725 529 l 408 529 q 350 517 378 529 q 301 485 322 506 q 269 437 281 464 q 257 378 257 410 l 257 340 m 446 1044 l 536 1044 l 715 786 l 542 786 l 490 914 l 440 786 l 265 786 l 446 1044 z "},"ã":{"ha":1017,"x_min":67,"x_max":915,"o":"m 257 785 q 301 931 254 878 q 421 985 347 985 q 481 974 453 985 q 535 951 510 964 q 583 928 560 939 q 626 918 606 918 q 672 935 654 918 q 686 985 689 953 l 783 985 q 754 842 792 897 q 629 786 717 786 q 567 796 594 786 q 516 818 540 806 q 467 840 492 831 q 414 850 443 850 q 371 835 386 850 q 356 785 356 819 l 257 785 m 915 719 l 915 -1 l 408 -1 q 275 26 338 -1 q 167 99 213 53 q 94 207 121 144 q 67 340 67 269 l 67 378 q 94 511 67 449 q 167 619 121 574 q 275 692 213 665 q 408 719 338 719 l 915 719 m 725 529 l 408 529 q 350 517 378 529 q 301 485 322 506 q 269 437 281 464 q 257 378 257 410 l 257 340 q 269 282 257 310 q 301 234 281 254 q 350 202 322 214 q 408 190 378 190 l 725 190 l 725 529 z "},"ä":{"ha":1017,"x_min":67,"x_max":915,"o":"m 629 786 q 556 818 586 788 q 526 892 526 849 q 556 965 526 935 q 629 997 586 996 q 703 966 672 996 q 733 892 733 936 q 703 818 733 849 q 629 786 672 788 m 353 786 q 278 817 308 786 q 249 892 249 847 q 280 967 249 936 q 354 997 311 997 q 429 965 397 997 q 458 912 451 943 q 451 850 464 881 q 412 803 439 821 q 353 786 385 786 m 915 719 l 915 -1 l 408 -1 q 275 26 338 -1 q 167 99 213 53 q 94 207 121 144 q 67 340 67 269 l 67 378 q 94 511 67 449 q 167 619 121 574 q 275 692 213 665 q 408 719 338 719 l 915 719 m 725 529 l 408 529 q 350 517 378 529 q 301 485 322 506 q 269 437 281 464 q 257 378 257 410 l 257 340 q 269 282 257 310 q 301 234 281 254 q 350 202 322 214 q 408 190 378 190 l 725 190 l 725 529 z "},"å":{"ha":1017,"x_min":67,"x_max":915,"o":"m 529 786 q 469 799 497 786 q 419 834 440 813 q 384 884 397 856 q 371 944 371 913 q 383 1007 371 978 q 418 1058 396 1036 q 469 1093 440 1081 q 531 1106 497 1106 q 643 1058 596 1106 q 688 976 678 1024 q 678 885 697 929 q 618 813 658 840 q 529 786 578 786 m 529 1006 q 488 986 506 1004 q 471 944 471 968 q 489 904 472 921 q 529 886 506 888 q 571 903 553 886 q 590 944 589 919 q 572 987 589 969 q 529 1006 554 1004 m 915 719 l 915 -1 l 408 -1 q 275 26 338 -1 q 167 99 213 53 q 94 207 121 144 q 67 340 67 269 l 67 378 q 94 511 67 449 q 167 619 121 574 q 275 692 213 665 q 408 719 338 719 l 915 719 m 725 529 l 408 529 q 350 517 378 529 q 301 485 322 506 q 269 437 281 464 q 257 378 257 410 l 257 340 q 269 282 257 310 q 301 234 281 254 q 350 202 322 214 q 408 190 378 190 l 725 190 l 725 529 z "},"æ":{"ha":1657,"x_min":67,"x_max":1585,"o":"m 67 340 l 67 378 q 94 511 67 449 q 167 619 121 574 q 275 692 213 665 q 408 719 338 719 l 915 719 l 915 685 q 1067 719 985 719 l 1247 719 q 1378 693 1317 719 q 1486 621 1440 667 q 1558 513 1532 575 q 1585 382 1585 451 l 1585 317 l 917 317 q 968 226 926 261 q 1067 190 1010 190 l 1547 190 l 1547 -1 l 1067 -1 q 915 35 988 -1 l 915 -1 l 408 -1 q 275 26 338 -1 q 167 99 213 53 q 94 207 121 144 q 67 340 67 269 m 408 190 l 725 190 l 725 529 l 408 529 q 350 517 378 529 q 301 485 322 506 q 269 437 281 464 q 257 378 257 410 l 257 340 q 269 282 257 310 q 301 234 281 254 q 350 202 322 214 q 408 190 378 190 m 917 403 l 1394 403 q 1367 467 1386 438 q 1321 510 1351 490 q 1239 529 1290 529 l 1067 529 q 968 494 1010 529 q 917 403 926 458 z "},"ç":{"ha":989,"x_min":67,"x_max":915,"o":"m 408 719 l 915 719 l 915 528 l 408 528 q 350 516 378 528 q 301 484 322 504 q 269 437 281 464 q 257 378 257 410 l 257 340 q 269 282 257 310 q 301 234 281 254 q 350 202 322 214 q 408 190 378 190 l 915 190 l 915 -1 l 582 -1 l 551 -50 q 574 -46 563 -47 q 597 -44 586 -44 q 700 -77 658 -44 q 742 -172 742 -110 q 724 -247 742 -217 q 678 -296 707 -276 q 612 -324 649 -315 q 538 -332 575 -332 q 358 -276 439 -332 l 394 -193 q 508 -232 444 -229 q 563 -217 540 -232 q 586 -171 586 -203 q 569 -133 585 -149 q 529 -118 553 -118 q 496 -122 513 -118 q 464 -133 479 -125 l 401 -96 l 468 -1 l 408 -1 q 276 26 338 -1 q 167 99 214 53 q 94 207 121 144 q 67 340 67 269 l 67 378 q 94 510 67 449 q 167 619 121 572 q 276 692 214 665 q 408 719 338 719 z "},"è":{"ha":999,"x_min":67,"x_max":928,"o":"m 551 786 l 372 1044 l 546 1044 l 650 786 l 551 786 m 928 317 l 260 317 q 310 226 268 261 q 408 190 353 190 l 890 190 l 890 -1 l 408 -1 q 275 26 338 -1 q 167 99 213 53 q 94 207 121 144 q 67 340 67 269 l 67 378 q 94 511 67 449 q 167 619 121 574 q 275 692 213 665 q 408 719 338 719 l 589 719 q 722 693 660 719 q 829 621 783 667 q 901 513 875 575 q 928 382 928 451 l 928 317 m 738 403 q 710 467 729 438 q 663 510 693 490 q 581 529 632 529 l 408 529 q 310 494 353 529 q 260 403 268 458 l 738 403 z "},"é":{"ha":999,"x_min":67,"x_max":928,"o":"m 458 786 l 361 786 l 465 1044 l 639 1044 l 458 786 m 928 317 l 260 317 q 310 226 268 261 q 408 190 353 190 l 890 190 l 890 -1 l 408 -1 q 275 26 338 -1 q 167 99 213 53 q 94 207 121 144 q 67 340 67 269 l 67 378 q 94 511 67 449 q 167 619 121 574 q 275 692 213 665 q 408 719 338 719 l 589 719 q 722 693 660 719 q 829 621 783 667 q 901 514 875 575 q 928 382 928 453 l 928 317 m 738 403 q 710 467 729 438 q 663 510 693 490 q 582 529 632 529 l 408 529 q 310 494 353 529 q 260 403 268 458 l 738 403 z "},"ê":{"ha":999,"x_min":67,"x_max":928,"o":"m 67 340 l 67 378 q 94 511 67 449 q 167 619 121 574 q 275 692 213 665 q 408 719 338 719 l 589 719 q 722 693 660 719 q 829 621 783 667 q 901 513 875 575 q 928 382 928 451 l 928 317 l 260 317 q 310 226 268 261 q 408 190 353 190 l 890 190 l 890 -1 l 408 -1 q 275 26 338 -1 q 167 99 213 53 q 94 207 121 144 q 67 340 67 269 m 446 1044 l 536 1044 l 715 786 l 542 786 l 490 914 l 439 786 l 265 786 l 446 1044 m 260 403 l 738 403 q 710 467 729 438 q 663 510 693 490 q 581 529 632 529 l 408 529 q 310 494 353 529 q 260 403 268 458 z "},"ë":{"ha":999,"x_min":67,"x_max":928,"o":"m 636 786 q 563 818 592 788 q 533 892 533 849 q 563 965 533 935 q 636 997 592 996 q 709 966 679 996 q 739 892 739 936 q 709 818 739 849 q 636 786 679 788 m 358 786 q 285 817 315 786 q 254 892 254 849 q 272 951 254 924 q 321 989 290 978 q 360 997 340 997 q 400 989 381 997 q 435 965 419 981 q 464 912 458 943 q 457 850 469 881 q 417 803 444 821 q 358 786 390 786 m 928 317 l 260 317 q 310 226 268 261 q 408 190 353 190 l 890 190 l 890 -1 l 408 -1 q 275 26 338 -1 q 167 99 213 53 q 94 207 121 144 q 67 340 67 269 l 67 378 q 94 511 67 449 q 167 619 121 574 q 275 692 213 665 q 408 719 338 719 l 589 719 q 722 693 660 719 q 829 621 783 667 q 901 513 875 575 q 928 382 928 451 l 928 317 m 738 403 q 710 467 729 438 q 663 510 693 490 q 582 529 632 529 l 408 529 q 310 494 353 529 q 260 403 268 458 l 738 403 z "},"ì":{"ha":396,"x_min":58,"x_max":336,"o":"m 238 786 l 58 1044 l 232 1044 l 336 786 l 238 786 m 101 -1 l 101 719 l 293 719 l 293 -1 l 101 -1 z "},"í":{"ha":396,"x_min":58,"x_max":336,"o":"m 157 786 l 58 786 l 163 1044 l 336 1044 l 157 786 m 101 -1 l 101 719 l 293 719 l 293 -1 l 101 -1 z "},"î":{"ha":394,"x_min":-28,"x_max":422,"o":"m 101 -1 l 101 719 l 293 719 l 293 -1 l 101 -1 m -28 786 l 151 1044 l 242 1044 l 422 786 l 249 786 l 197 914 l 146 786 l -28 786 z "},"ï":{"ha":393,"x_min":-46,"x_max":439,"o":"m 335 997 q 409 966 379 996 q 439 892 439 936 q 409 818 439 849 q 335 786 379 788 q 262 818 292 788 q 232 892 232 849 q 262 965 232 935 q 335 997 292 996 m 161 892 q 132 818 161 847 q 58 786 103 789 q -15 816 15 786 q -46 889 -46 846 q -17 962 -46 932 q 56 993 13 992 q 129 965 99 994 q 161 892 160 935 m 101 -1 l 101 719 l 292 719 l 292 -1 l 101 -1 z "},"ñ":{"ha":1018,"x_min":85,"x_max":933,"o":"m 426 719 l 592 719 q 725 692 663 719 q 833 619 788 665 q 906 511 879 574 q 933 378 933 449 l 933 -1 l 743 -1 l 743 378 q 731 437 743 410 q 699 485 719 464 q 651 517 678 506 q 592 529 624 529 l 426 529 q 368 517 396 529 q 319 485 340 506 q 287 437 299 464 q 275 378 275 410 l 275 -1 l 85 -1 l 85 378 q 112 511 85 449 q 185 619 139 574 q 293 692 231 665 q 426 719 356 719 m 410 985 q 470 974 442 985 q 524 951 499 964 q 571 928 549 939 q 614 918 593 918 q 659 935 642 918 q 674 985 676 953 l 771 985 q 742 842 779 897 q 617 786 704 786 q 555 796 582 786 q 503 818 528 806 q 455 840 479 831 q 401 850 431 850 q 358 835 374 850 q 343 785 343 819 l 244 785 q 288 931 242 878 q 410 985 335 985 z "},"ò":{"ha":1014,"x_min":67,"x_max":946,"o":"m 547 786 l 368 1044 l 542 1044 l 646 786 l 547 786 m 604 719 q 738 692 675 719 q 846 619 800 665 q 919 511 892 574 q 946 378 946 449 l 946 340 q 919 207 946 269 q 846 99 892 144 q 738 26 800 53 q 604 -1 675 -1 l 408 -1 q 275 26 338 -1 q 167 99 213 53 q 94 207 121 144 q 67 340 67 269 l 67 378 q 94 511 67 449 q 167 619 121 574 q 275 692 213 665 q 408 719 338 719 l 604 719 m 756 378 q 744 437 756 410 q 711 485 732 464 q 663 517 690 506 q 604 529 636 529 l 408 529 q 350 517 378 529 q 301 485 322 506 q 269 437 281 464 q 257 378 257 410 l 257 340 q 269 282 257 310 q 301 234 281 254 q 350 202 322 214 q 408 190 378 190 l 604 190 q 663 202 636 190 q 711 234 690 214 q 744 282 732 254 q 756 340 756 310 l 756 378 z "},"ó":{"ha":1014,"x_min":67,"x_max":946,"o":"m 465 786 l 368 786 l 472 1044 l 646 1044 l 465 786 m 604 719 q 738 692 675 719 q 846 619 800 665 q 919 511 892 574 q 946 378 946 449 l 946 340 q 919 207 946 269 q 846 99 892 144 q 738 26 800 53 q 604 -1 675 -1 l 408 -1 q 275 26 338 -1 q 167 99 213 53 q 94 207 121 144 q 67 340 67 269 l 67 378 q 94 511 67 449 q 167 619 121 574 q 275 692 213 665 q 408 719 338 719 l 604 719 m 756 378 q 744 437 756 410 q 711 485 732 464 q 663 517 690 506 q 604 529 636 529 l 408 529 q 350 517 378 529 q 301 485 322 506 q 269 437 281 464 q 257 378 257 410 l 257 340 q 269 282 257 310 q 301 234 281 254 q 350 202 322 214 q 408 190 378 190 l 604 190 q 663 202 636 190 q 711 234 690 214 q 744 282 732 254 q 756 340 756 310 l 756 378 z "},"ô":{"ha":1014,"x_min":67,"x_max":946,"o":"m 408 719 l 604 719 q 738 692 675 719 q 846 619 800 665 q 919 511 892 574 q 946 378 946 449 l 946 340 q 919 207 946 269 q 846 99 892 144 q 738 26 800 53 q 604 -1 675 -1 l 408 -1 q 275 26 338 -1 q 167 99 213 53 q 94 207 121 144 q 67 340 67 269 l 67 378 q 94 511 67 449 q 167 619 121 574 q 275 692 213 665 q 408 719 338 719 m 257 378 l 257 340 q 269 282 257 310 q 301 234 281 254 q 350 202 322 214 q 408 190 378 190 l 604 190 q 663 202 636 190 q 711 234 690 214 q 744 282 732 254 q 756 340 756 310 l 756 378 q 744 437 756 410 q 711 485 732 464 q 663 517 690 506 q 604 529 636 529 l 408 529 q 350 517 378 529 q 301 485 322 506 q 269 437 281 464 q 257 378 257 410 m 282 786 l 461 1044 l 551 1044 l 732 786 l 557 786 l 507 914 l 456 786 l 282 786 z "},"õ":{"ha":1014,"x_min":67,"x_max":946,"o":"m 243 785 q 285 931 239 878 q 407 985 332 985 q 467 974 439 985 q 521 951 496 964 q 568 928 546 939 q 611 918 590 918 q 656 935 639 918 q 671 985 674 953 l 769 985 q 740 842 778 897 q 614 786 703 786 q 552 796 579 786 q 501 818 525 806 q 453 840 478 831 q 399 850 429 850 q 342 785 342 850 l 243 785 m 604 719 q 738 692 675 719 q 846 619 800 665 q 919 511 892 574 q 946 378 946 449 l 946 340 q 919 207 946 269 q 846 99 892 144 q 738 26 800 53 q 604 -1 675 -1 l 408 -1 q 275 26 338 -1 q 167 99 213 53 q 94 207 121 144 q 67 340 67 269 l 67 378 q 94 511 67 449 q 167 619 121 574 q 275 692 213 665 q 408 719 338 719 l 604 719 m 756 378 q 744 437 756 410 q 711 485 732 464 q 663 517 690 506 q 604 529 636 529 l 408 529 q 350 517 378 529 q 301 485 322 506 q 269 437 281 464 q 257 378 257 410 l 257 340 q 269 282 257 310 q 301 234 281 254 q 350 202 322 214 q 408 190 378 190 l 604 190 q 663 202 636 190 q 711 234 690 214 q 744 282 732 254 q 756 340 756 310 l 756 378 z "},"ö":{"ha":1014,"x_min":67,"x_max":946,"o":"m 644 786 q 572 818 601 788 q 542 892 542 849 q 572 965 542 935 q 644 997 601 996 q 719 966 689 996 q 749 892 749 936 q 719 818 749 849 q 644 786 689 788 m 368 786 q 294 817 325 786 q 264 892 264 849 q 295 967 264 936 q 369 997 326 997 q 444 965 413 997 q 474 912 468 943 q 467 850 479 881 q 427 803 454 821 q 368 786 400 786 m 604 719 q 738 692 675 719 q 846 619 800 665 q 919 511 892 574 q 946 378 946 449 l 946 340 q 919 207 946 269 q 846 99 892 144 q 738 26 800 53 q 604 -1 675 -1 l 408 -1 q 275 26 338 -1 q 167 99 213 53 q 94 207 121 144 q 67 340 67 269 l 67 378 q 94 511 67 449 q 167 619 121 574 q 275 692 213 665 q 408 719 338 719 l 604 719 m 756 378 q 744 437 756 410 q 711 485 732 464 q 663 517 690 506 q 604 529 636 529 l 408 529 q 350 517 378 529 q 301 485 322 506 q 269 437 281 464 q 257 378 257 410 l 257 340 q 269 282 257 310 q 301 234 281 254 q 350 202 322 214 q 408 190 378 190 l 604 190 q 663 202 636 190 q 711 234 690 214 q 744 282 732 254 q 756 340 756 310 l 756 378 z "},"ø":{"ha":1014,"x_min":67,"x_max":946,"o":"m 761 682 q 897 556 847 638 q 946 378 946 474 l 946 340 q 919 208 946 269 q 846 99 892 146 q 738 26 800 53 q 604 -1 675 -1 l 408 -1 q 392 -1 400 -1 q 374 1 383 0 l 336 -65 l 193 -65 l 251 38 q 116 163 165 82 q 67 340 67 244 l 67 378 q 94 511 67 449 q 167 619 121 574 q 275 692 213 665 q 408 719 338 719 l 604 719 q 622 719 614 719 q 639 718 631 719 l 676 785 l 821 785 l 761 682 m 532 529 l 408 529 q 350 517 378 529 q 301 485 322 506 q 269 437 281 464 q 257 378 257 410 l 257 340 q 281 259 257 296 q 346 203 306 222 l 532 529 m 756 378 q 731 460 756 422 q 667 515 707 497 l 482 190 l 604 190 q 663 202 636 190 q 711 234 690 214 q 744 282 732 254 q 756 340 756 310 l 756 378 z "},"ù":{"ha":1015,"x_min":83,"x_max":932,"o":"m 83 719 l 274 719 l 274 340 q 285 282 274 310 q 318 234 297 254 q 367 202 339 214 q 425 190 394 190 l 590 190 q 649 202 622 190 q 697 234 676 214 q 730 282 718 254 q 742 340 742 310 l 742 719 l 932 719 l 932 340 q 905 208 932 269 q 832 99 878 146 q 724 26 786 53 q 590 -1 661 -1 l 425 -1 q 292 26 354 -1 q 183 99 229 53 q 110 208 138 146 q 83 340 83 269 l 83 719 m 368 1044 l 543 1044 l 647 786 l 549 786 l 368 1044 z "},"ú":{"ha":1015,"x_min":83,"x_max":932,"o":"m 274 719 l 274 340 q 285 282 274 310 q 318 234 297 254 q 367 202 339 214 q 425 190 394 190 l 590 190 q 649 202 622 190 q 697 234 676 214 q 730 282 718 254 q 742 340 742 310 l 742 719 l 932 719 l 932 340 q 905 208 932 269 q 832 99 878 146 q 724 26 786 53 q 590 -1 661 -1 l 425 -1 q 292 26 354 -1 q 183 99 229 53 q 110 208 138 146 q 83 340 83 269 l 83 719 l 274 719 m 472 1044 l 647 1044 l 467 786 l 368 786 l 472 1044 z "},"û":{"ha":1015,"x_min":83,"x_max":932,"o":"m 83 340 l 83 719 l 274 719 l 274 340 q 285 282 274 310 q 318 234 297 254 q 367 202 339 214 q 425 190 394 190 l 590 190 q 649 202 622 190 q 697 234 676 214 q 730 282 718 254 q 742 340 742 310 l 742 719 l 932 719 l 932 340 q 905 208 932 269 q 832 99 878 146 q 724 26 786 53 q 590 -1 661 -1 l 425 -1 q 292 26 354 -1 q 183 99 229 53 q 110 208 138 146 q 83 340 83 269 m 463 1044 l 553 1044 l 732 786 l 558 786 l 507 914 l 457 786 l 282 786 l 463 1044 z "},"ü":{"ha":1015,"x_min":83,"x_max":932,"o":"m 83 719 l 274 719 l 274 340 q 285 282 274 310 q 318 234 297 254 q 367 202 339 214 q 425 190 394 190 l 590 190 q 649 202 622 190 q 697 234 676 214 q 730 282 718 254 q 742 340 742 310 l 742 719 l 932 719 l 932 340 q 905 208 932 269 q 832 99 878 146 q 724 26 786 53 q 590 -1 661 -1 l 425 -1 q 292 26 354 -1 q 183 99 229 53 q 110 208 138 146 q 83 340 83 269 l 83 719 m 543 892 q 573 965 543 935 q 646 997 603 996 q 719 966 689 996 q 750 892 750 936 q 719 818 750 849 q 646 786 689 788 q 573 818 603 788 q 543 892 543 849 m 371 997 q 446 965 414 997 q 474 912 468 943 q 468 850 481 881 q 428 803 456 821 q 369 786 401 786 q 295 817 325 786 q 265 892 265 847 q 297 967 265 936 q 371 997 328 997 z "},"ý":{"ha":1033,"x_min":83,"x_max":932,"o":"m 83 719 l 274 719 l 274 340 q 285 282 274 310 q 318 234 297 254 q 367 202 339 214 q 425 190 394 190 l 590 190 q 649 202 622 190 q 697 234 676 214 q 730 282 718 254 q 742 340 742 310 l 742 719 l 932 719 l 932 8 q 905 -125 932 -62 q 832 -233 878 -187 q 724 -306 786 -279 q 590 -333 661 -333 l 165 -333 l 165 -143 l 590 -143 q 649 -131 622 -143 q 697 -99 676 -119 q 730 -51 718 -78 q 742 8 742 -24 l 742 35 q 590 -1 669 -1 l 425 -1 q 292 26 354 -1 q 183 99 229 53 q 110 208 138 146 q 83 340 83 269 l 83 719 m 472 1044 l 647 1044 l 467 786 l 368 786 l 472 1044 z "},"ÿ":{"ha":1033,"x_min":83,"x_max":932,"o":"m 83 719 l 274 719 l 274 340 q 285 282 274 310 q 318 234 297 254 q 367 202 339 214 q 425 190 394 190 l 590 190 q 649 202 622 190 q 697 234 676 214 q 730 282 718 254 q 742 340 742 310 l 742 719 l 932 719 l 932 8 q 905 -125 932 -62 q 832 -233 878 -187 q 724 -306 786 -279 q 590 -333 661 -333 l 165 -333 l 165 -143 l 590 -143 q 649 -131 622 -143 q 697 -99 676 -119 q 730 -51 718 -78 q 742 8 742 -24 l 742 35 q 590 -1 669 -1 l 425 -1 q 292 26 354 -1 q 183 99 229 53 q 110 208 138 146 q 83 340 83 269 l 83 719 m 543 892 q 573 965 543 935 q 646 997 603 996 q 720 966 690 996 q 750 892 750 936 q 720 818 750 849 q 646 786 690 788 q 573 818 603 788 q 543 892 543 849 m 265 892 q 297 967 265 936 q 371 997 328 997 q 446 965 414 997 q 474 912 468 943 q 468 850 481 881 q 428 803 456 821 q 369 786 401 786 q 296 818 325 786 q 265 892 265 847 z "},"ı":{"ha":394,"x_min":101,"x_max":292,"o":"m 101 -1 l 101 719 l 292 719 l 292 -1 l 101 -1 z "},"Œ":{"ha":1825,"x_min":72,"x_max":1740,"o":"m 72 428 l 72 542 q 106 708 72 631 q 199 844 140 786 q 335 937 257 903 q 501 971 413 971 l 700 971 q 939 897 832 971 l 939 971 l 1740 971 l 1740 781 l 1129 781 l 1129 190 l 1740 190 l 1740 -1 l 939 -1 l 939 72 q 700 -1 832 -1 l 501 -1 q 335 33 413 -1 q 199 125 257 67 q 106 261 140 183 q 72 428 72 339 m 263 542 l 263 428 q 281 336 263 379 q 333 260 300 293 q 408 209 365 228 q 501 190 451 190 l 700 190 q 793 209 750 190 q 869 260 836 228 q 920 336 901 293 q 939 428 939 379 l 939 542 q 920 635 939 592 q 869 710 901 678 q 793 762 836 743 q 700 781 750 781 l 501 781 q 408 762 451 781 q 333 710 365 743 q 281 635 300 678 q 263 542 263 592 m 1696 581 l 1696 389 l 1215 389 l 1215 581 l 1696 581 z "},"œ":{"ha":1693,"x_min":67,"x_max":1621,"o":"m 408 719 l 604 719 q 740 692 675 719 q 853 613 804 664 q 967 692 901 664 q 1103 719 1032 719 l 1283 719 q 1415 693 1354 719 q 1522 621 1476 667 q 1594 514 1568 575 q 1621 382 1621 453 l 1621 317 l 953 317 q 1004 226 963 261 q 1101 190 1046 190 l 1583 190 l 1583 -1 l 1101 -1 q 966 26 1031 -1 q 853 107 901 54 q 740 26 804 54 q 604 -1 675 -1 l 408 -1 q 275 26 338 -1 q 167 99 213 53 q 94 207 121 144 q 67 340 67 269 l 67 378 q 94 511 67 449 q 167 619 121 574 q 275 692 213 665 q 408 719 338 719 m 257 340 q 269 282 257 310 q 301 234 281 254 q 350 202 322 214 q 408 190 378 190 l 604 190 q 663 202 636 190 q 711 234 690 214 q 744 282 732 254 q 756 340 756 310 l 756 378 q 744 437 756 410 q 711 485 732 464 q 663 517 690 506 q 604 529 636 529 l 408 529 q 350 517 378 529 q 301 485 322 506 q 269 437 281 464 q 257 378 257 410 l 257 340 m 1431 403 q 1403 467 1422 438 q 1356 510 1386 490 q 1275 529 1325 529 l 1103 529 q 1004 494 1046 529 q 953 403 963 458 l 1431 403 z "},"Š":{"ha":1111,"x_min":68,"x_max":1036,"o":"m 68 190 l 694 190 q 801 219 758 190 q 844 290 844 249 q 694 390 844 390 l 438 390 q 297 411 360 390 q 189 469 233 432 q 120 560 144 507 q 96 681 96 614 q 122 794 96 742 q 194 887 149 847 q 303 949 240 926 q 438 971 365 971 l 1021 971 l 1021 781 l 438 781 q 330 751 374 781 q 286 681 286 722 q 438 581 286 581 l 694 581 q 835 560 772 581 q 943 501 899 539 q 1012 410 988 464 q 1036 290 1036 357 q 1010 176 1036 229 q 938 84 983 124 q 829 22 892 44 q 694 0 767 0 l 68 0 l 68 190 m 501 1317 l 551 1190 l 603 1317 l 776 1317 l 597 1058 l 507 1058 l 326 1317 l 501 1317 z "},"š":{"ha":981,"x_min":81,"x_max":917,"o":"m 282 719 l 854 719 l 854 529 l 335 529 q 290 511 308 529 q 271 465 271 493 q 290 421 271 439 q 335 403 308 403 l 715 403 q 794 387 757 403 q 858 344 831 371 q 901 280 885 317 q 917 201 917 243 q 901 122 917 160 q 858 58 885 85 q 794 15 831 31 q 715 -1 757 -1 l 81 -1 l 81 190 l 663 190 q 718 221 700 190 q 718 285 736 253 q 694 308 710 300 q 663 317 679 317 l 282 317 q 203 333 240 317 q 140 376 167 349 q 97 440 113 403 q 81 518 81 476 q 97 597 81 560 q 140 660 113 633 q 203 703 167 688 q 282 719 240 719 m 447 1044 l 499 918 l 550 1044 l 724 1044 l 543 786 l 453 786 l 274 1044 l 447 1044 z "},"Ÿ":{"ha":1090,"x_min":10,"x_max":1079,"o":"m 10 971 l 225 971 l 544 571 l 864 971 l 1079 971 l 640 440 l 640 -1 l 450 -1 l 450 440 l 10 971 m 683 1269 q 757 1239 726 1269 q 788 1164 788 1208 q 757 1090 788 1121 q 683 1058 726 1060 q 610 1091 640 1061 q 581 1164 581 1121 q 610 1238 581 1207 q 683 1269 640 1268 m 303 1164 q 320 1223 303 1196 q 368 1261 338 1250 q 408 1269 388 1269 q 483 1239 450 1269 q 511 1184 506 1215 q 504 1124 517 1153 q 465 1076 492 1093 q 407 1058 439 1058 q 367 1067 386 1058 q 332 1090 347 1075 q 303 1164 300 1122 z "},"Ž":{"ha":949,"x_min":57,"x_max":890,"o":"m 75 140 l 611 781 l 58 781 l 58 971 l 799 971 q 845 958 824 971 q 878 922 867 946 q 889 875 890 900 q 872 829 888 850 l 336 190 l 889 190 l 889 -1 l 149 -1 q 102 12 124 -1 q 69 47 81 25 q 58 95 57 71 q 75 140 60 119 m 249 1317 l 422 1317 l 474 1190 l 525 1317 l 699 1317 l 519 1058 l 428 1058 l 249 1317 z "},"ž":{"ha":900,"x_min":46,"x_max":842,"o":"m 76 132 l 528 529 l 85 529 l 85 719 l 757 719 q 800 708 781 719 q 831 674 819 696 q 840 630 842 653 q 824 588 838 607 l 372 190 l 815 190 l 815 -1 l 143 -1 q 99 11 119 -1 q 68 44 79 24 q 76 132 46 92 m 225 1044 l 399 1044 l 450 918 l 501 1044 l 675 1044 l 494 786 l 404 786 l 225 1044 z "},"–":{"ha":904,"x_min":68,"x_max":836,"o":"m 68 460 l 68 603 l 836 603 l 836 460 l 68 460 z "},"—":{"ha":1299,"x_min":68,"x_max":1231,"o":"m 68 460 l 68 603 l 1231 603 l 1231 460 l 68 460 z "},"‘":{"ha":339,"x_min":64,"x_max":254,"o":"m 254 1043 l 254 671 l 136 671 l 64 1043 l 254 1043 z "},"’":{"ha":339,"x_min":83,"x_max":274,"o":"m 274 1043 l 203 671 l 83 671 l 83 1043 l 274 1043 z "},"‚":{"ha":331,"x_min":75,"x_max":258,"o":"m 258 204 l 188 -169 l 75 -169 l 75 204 l 258 204 z "},"“":{"ha":644,"x_min":64,"x_max":561,"o":"m 369 1043 l 561 1043 l 561 671 l 443 671 l 369 1043 m 254 1043 l 254 671 l 136 671 l 64 1043 l 254 1043 z "},"”":{"ha":644,"x_min":83,"x_max":581,"o":"m 389 671 l 389 1043 l 581 1043 l 508 671 l 389 671 m 274 1043 l 201 671 l 83 671 l 83 1043 l 274 1043 z "},"„":{"ha":636,"x_min":75,"x_max":564,"o":"m 381 -169 l 381 204 l 564 204 l 493 -169 l 381 -169 m 258 204 l 188 -169 l 75 -169 l 75 204 l 258 204 z "},"†":{"ha":663,"x_min":83,"x_max":579,"o":"m 260 764 l 260 915 l 403 915 l 403 764 l 579 764 l 579 621 l 403 621 l 403 147 l 260 147 l 260 621 l 83 621 l 83 764 l 260 764 z "},"•":{"ha":582,"x_min":85,"x_max":497,"o":"m 481 613 q 497 532 497 575 q 480 449 497 488 q 433 384 463 411 q 365 342 404 357 q 282 326 326 326 q 244 331 263 326 q 210 342 226 335 q 118 418 151 368 q 85 532 85 468 q 99 611 85 572 q 144 678 114 650 q 210 723 172 707 q 289 739 249 739 q 403 704 351 739 q 481 613 456 669 z "},"…":{"ha":1842,"x_min":71,"x_max":1771,"o":"m 167 183 q 238 156 208 183 q 267 86 267 129 q 237 15 267 42 q 163 -11 207 -11 q 97 18 122 -11 q 71 86 71 47 q 99 155 71 126 q 167 183 126 183 m 919 183 q 990 156 961 183 q 1018 86 1018 128 q 988 15 1018 42 q 914 -11 957 -11 q 848 18 874 -11 q 822 86 822 47 q 850 156 822 129 q 919 183 878 183 m 1742 156 q 1763 124 1756 142 q 1769 86 1771 106 q 1763 49 1771 67 q 1742 17 1756 31 q 1708 -5 1725 1 q 1667 -11 1690 -11 q 1603 17 1628 -11 q 1581 49 1589 31 q 1575 86 1574 67 q 1603 156 1574 126 q 1635 177 1618 171 q 1675 183 1653 183 q 1711 176 1694 183 q 1742 156 1728 168 z "},"‹":{"ha":596,"x_min":76,"x_max":508,"o":"m 279 532 l 508 304 l 406 203 l 76 532 l 406 863 l 508 761 l 279 532 z "},"›":{"ha":596,"x_min":88,"x_max":519,"o":"m 519 532 l 189 203 l 88 304 l 315 532 l 88 761 l 189 863 l 519 532 z "},"⁰":{"ha":836,"x_min":90,"x_max":746,"o":"m 721 867 q 746 739 746 807 q 720 609 746 669 q 650 504 694 549 q 546 434 606 460 q 418 408 486 408 q 288 435 349 408 q 184 506 228 461 q 115 610 140 550 q 90 739 90 671 q 116 868 90 810 q 186 968 142 926 q 290 1033 231 1010 q 418 1057 350 1057 q 599 1007 517 1057 q 721 867 681 957 m 619 649 q 635 733 635 692 q 618 825 635 786 q 571 891 601 864 q 499 931 540 918 q 408 944 458 944 q 322 928 361 944 q 256 884 283 913 q 215 817 229 856 q 200 733 200 779 q 215 652 200 692 q 257 581 229 613 q 335 532 293 544 q 426 519 378 519 q 488 528 458 519 q 544 554 518 538 q 590 594 571 571 q 619 649 610 618 z "},"€":{"ha":1304,"x_min":88,"x_max":1267,"o":"m 107 658 l 206 658 q 270 820 224 749 q 383 941 317 892 q 530 1017 449 990 q 700 1043 611 1043 l 1267 1043 l 1149 861 l 700 861 q 520 808 600 861 q 408 658 440 754 l 1024 658 l 979 592 l 382 592 l 378 558 q 376 541 376 550 q 376 524 376 532 q 381 460 376 492 l 896 460 l 853 393 l 404 393 q 450 306 421 344 q 517 239 479 267 q 602 197 556 211 q 700 182 649 182 l 1185 182 l 1185 0 l 700 0 q 529 28 610 0 q 384 109 449 57 q 274 233 319 161 q 208 393 228 306 l 88 393 l 106 460 l 197 460 q 193 496 194 478 q 192 532 192 514 q 196 592 192 563 l 88 592 l 107 658 z "},"<":{"ha":596,"x_min":76,"x_max":508,"o":"m 279 532 l 508 304 l 406 203 l 76 532 l 406 863 l 508 761 l 279 532 z "},">":{"ha":596,"x_min":88,"x_max":519,"o":"m 519 532 l 189 203 l 88 304 l 315 532 l 88 761 l 189 863 l 519 532 z "},"^":{"ha":824,"x_min":88,"x_max":747,"o":"m 418 972 l 747 642 l 646 540 l 418 768 l 189 540 l 88 642 l 418 972 z "},"\"":{"ha":644,"x_min":88,"x_max":568,"o":"m 385 944 l 385 1318 l 568 1318 l 497 944 l 385 944 m 271 1318 l 200 944 l 88 944 l 88 1318 l 271 1318 z "}}}
